%TF.GenerationSoftware,KiCad,Pcbnew,6.0.11+dfsg-1*%
%TF.CreationDate,2024-02-21T15:30:31+01:00*%
%TF.ProjectId,PCB_TMS,5043425f-544d-4532-9e6b-696361645f70,rev?*%
%TF.SameCoordinates,Original*%
%TF.FileFunction,Copper,L1,Top*%
%TF.FilePolarity,Positive*%
%FSLAX46Y46*%
G04 Gerber Fmt 4.6, Leading zero omitted, Abs format (unit mm)*
G04 Created by KiCad (PCBNEW 6.0.11+dfsg-1) date 2024-02-21 15:30:31*
%MOMM*%
%LPD*%
G01*
G04 APERTURE LIST*
G04 Aperture macros list*
%AMRoundRect*
0 Rectangle with rounded corners*
0 $1 Rounding radius*
0 $2 $3 $4 $5 $6 $7 $8 $9 X,Y pos of 4 corners*
0 Add a 4 corners polygon primitive as box body*
4,1,4,$2,$3,$4,$5,$6,$7,$8,$9,$2,$3,0*
0 Add four circle primitives for the rounded corners*
1,1,$1+$1,$2,$3*
1,1,$1+$1,$4,$5*
1,1,$1+$1,$6,$7*
1,1,$1+$1,$8,$9*
0 Add four rect primitives between the rounded corners*
20,1,$1+$1,$2,$3,$4,$5,0*
20,1,$1+$1,$4,$5,$6,$7,0*
20,1,$1+$1,$6,$7,$8,$9,0*
20,1,$1+$1,$8,$9,$2,$3,0*%
G04 Aperture macros list end*
%ADD10C,0.250000*%
%TA.AperFunction,NonConductor*%
%ADD11C,0.250000*%
%TD*%
%TA.AperFunction,SMDPad,CuDef*%
%ADD12C,1.000000*%
%TD*%
%TA.AperFunction,SMDPad,CuDef*%
%ADD13RoundRect,0.237500X-0.300000X-0.237500X0.300000X-0.237500X0.300000X0.237500X-0.300000X0.237500X0*%
%TD*%
%TA.AperFunction,SMDPad,CuDef*%
%ADD14RoundRect,0.237500X0.237500X-0.300000X0.237500X0.300000X-0.237500X0.300000X-0.237500X-0.300000X0*%
%TD*%
%TA.AperFunction,SMDPad,CuDef*%
%ADD15R,2.000000X7.875000*%
%TD*%
%TA.AperFunction,SMDPad,CuDef*%
%ADD16RoundRect,0.237500X-0.237500X0.300000X-0.237500X-0.300000X0.237500X-0.300000X0.237500X0.300000X0*%
%TD*%
%TA.AperFunction,SMDPad,CuDef*%
%ADD17RoundRect,0.237500X0.250000X0.237500X-0.250000X0.237500X-0.250000X-0.237500X0.250000X-0.237500X0*%
%TD*%
%TA.AperFunction,SMDPad,CuDef*%
%ADD18RoundRect,0.100000X0.637500X0.100000X-0.637500X0.100000X-0.637500X-0.100000X0.637500X-0.100000X0*%
%TD*%
%TA.AperFunction,SMDPad,CuDef*%
%ADD19RoundRect,0.237500X-0.237500X0.287500X-0.237500X-0.287500X0.237500X-0.287500X0.237500X0.287500X0*%
%TD*%
%TA.AperFunction,ComponentPad*%
%ADD20R,1.700000X1.700000*%
%TD*%
%TA.AperFunction,ComponentPad*%
%ADD21O,1.700000X1.700000*%
%TD*%
%TA.AperFunction,SMDPad,CuDef*%
%ADD22R,1.100000X1.800000*%
%TD*%
%TA.AperFunction,SMDPad,CuDef*%
%ADD23RoundRect,0.237500X0.237500X-0.250000X0.237500X0.250000X-0.237500X0.250000X-0.237500X-0.250000X0*%
%TD*%
%TA.AperFunction,SMDPad,CuDef*%
%ADD24RoundRect,0.237500X-0.250000X-0.237500X0.250000X-0.237500X0.250000X0.237500X-0.250000X0.237500X0*%
%TD*%
%TA.AperFunction,SMDPad,CuDef*%
%ADD25RoundRect,0.237500X0.300000X0.237500X-0.300000X0.237500X-0.300000X-0.237500X0.300000X-0.237500X0*%
%TD*%
%TA.AperFunction,SMDPad,CuDef*%
%ADD26RoundRect,0.237500X-0.237500X0.250000X-0.237500X-0.250000X0.237500X-0.250000X0.237500X0.250000X0*%
%TD*%
%TA.AperFunction,SMDPad,CuDef*%
%ADD27RoundRect,0.150000X0.587500X0.150000X-0.587500X0.150000X-0.587500X-0.150000X0.587500X-0.150000X0*%
%TD*%
%TA.AperFunction,ViaPad*%
%ADD28C,0.800000*%
%TD*%
%TA.AperFunction,Conductor*%
%ADD29C,0.250000*%
%TD*%
G04 APERTURE END LIST*
D10*
D11*
X130211904Y-106947380D02*
X129735714Y-106947380D01*
X129735714Y-105947380D01*
X130688095Y-106947380D02*
X130592857Y-106899761D01*
X130545238Y-106852142D01*
X130497619Y-106756904D01*
X130497619Y-106471190D01*
X130545238Y-106375952D01*
X130592857Y-106328333D01*
X130688095Y-106280714D01*
X130830952Y-106280714D01*
X130926190Y-106328333D01*
X130973809Y-106375952D01*
X131021428Y-106471190D01*
X131021428Y-106756904D01*
X130973809Y-106852142D01*
X130926190Y-106899761D01*
X130830952Y-106947380D01*
X130688095Y-106947380D01*
X131878571Y-106280714D02*
X131878571Y-106947380D01*
X131450000Y-106280714D02*
X131450000Y-106804523D01*
X131497619Y-106899761D01*
X131592857Y-106947380D01*
X131735714Y-106947380D01*
X131830952Y-106899761D01*
X131878571Y-106852142D01*
X132354761Y-106947380D02*
X132354761Y-106280714D01*
X132354761Y-105947380D02*
X132307142Y-105995000D01*
X132354761Y-106042619D01*
X132402380Y-105995000D01*
X132354761Y-105947380D01*
X132354761Y-106042619D01*
X132783333Y-106899761D02*
X132878571Y-106947380D01*
X133069047Y-106947380D01*
X133164285Y-106899761D01*
X133211904Y-106804523D01*
X133211904Y-106756904D01*
X133164285Y-106661666D01*
X133069047Y-106614047D01*
X132926190Y-106614047D01*
X132830952Y-106566428D01*
X132783333Y-106471190D01*
X132783333Y-106423571D01*
X132830952Y-106328333D01*
X132926190Y-106280714D01*
X133069047Y-106280714D01*
X133164285Y-106328333D01*
X128950000Y-108271666D02*
X129426190Y-108271666D01*
X128854761Y-108557380D02*
X129188095Y-107557380D01*
X129521428Y-108557380D01*
X129854761Y-108557380D02*
X129854761Y-107890714D01*
X129854761Y-107985952D02*
X129902380Y-107938333D01*
X129997619Y-107890714D01*
X130140476Y-107890714D01*
X130235714Y-107938333D01*
X130283333Y-108033571D01*
X130283333Y-108557380D01*
X130283333Y-108033571D02*
X130330952Y-107938333D01*
X130426190Y-107890714D01*
X130569047Y-107890714D01*
X130664285Y-107938333D01*
X130711904Y-108033571D01*
X130711904Y-108557380D01*
X131616666Y-108557380D02*
X131616666Y-108033571D01*
X131569047Y-107938333D01*
X131473809Y-107890714D01*
X131283333Y-107890714D01*
X131188095Y-107938333D01*
X131616666Y-108509761D02*
X131521428Y-108557380D01*
X131283333Y-108557380D01*
X131188095Y-108509761D01*
X131140476Y-108414523D01*
X131140476Y-108319285D01*
X131188095Y-108224047D01*
X131283333Y-108176428D01*
X131521428Y-108176428D01*
X131616666Y-108128809D01*
X132521428Y-107890714D02*
X132521428Y-108557380D01*
X132092857Y-107890714D02*
X132092857Y-108414523D01*
X132140476Y-108509761D01*
X132235714Y-108557380D01*
X132378571Y-108557380D01*
X132473809Y-108509761D01*
X132521428Y-108462142D01*
X132997619Y-108557380D02*
X132997619Y-107890714D01*
X132997619Y-108081190D02*
X133045238Y-107985952D01*
X133092857Y-107938333D01*
X133188095Y-107890714D01*
X133283333Y-107890714D01*
X133521428Y-107890714D02*
X133759523Y-108557380D01*
X133997619Y-107890714D02*
X133759523Y-108557380D01*
X133664285Y-108795476D01*
X133616666Y-108843095D01*
X133521428Y-108890714D01*
D12*
X133800000Y-96800000D03*
X131218000Y-85816000D03*
X152100000Y-88600000D03*
D13*
X147937500Y-101287500D03*
X149662500Y-101287500D03*
D14*
X149700000Y-94312500D03*
X149700000Y-92587500D03*
D15*
X153200000Y-93950000D03*
X153200000Y-105825000D03*
D16*
X144450000Y-92575000D03*
X144450000Y-94300000D03*
D13*
X147937500Y-96287500D03*
X149662500Y-96287500D03*
D16*
X129450000Y-90000000D03*
X129450000Y-91725000D03*
D12*
X131850000Y-87900000D03*
D17*
X144075000Y-102400000D03*
X142250000Y-102400000D03*
D18*
X142562500Y-100325000D03*
X142562500Y-99675000D03*
X142562500Y-99025000D03*
X142562500Y-98375000D03*
X136837500Y-98375000D03*
X136837500Y-99025000D03*
X136837500Y-99675000D03*
X136837500Y-100325000D03*
X142562500Y-96905000D03*
X142562500Y-96255000D03*
X142562500Y-95605000D03*
X142562500Y-94955000D03*
X142562500Y-94305000D03*
X142562500Y-93655000D03*
X142562500Y-93005000D03*
X142562500Y-92355000D03*
X142562500Y-91705000D03*
X142562500Y-91055000D03*
X136837500Y-91055000D03*
X136837500Y-91705000D03*
X136837500Y-92355000D03*
X136837500Y-93005000D03*
X136837500Y-93655000D03*
X136837500Y-94305000D03*
X136837500Y-94955000D03*
X136837500Y-95605000D03*
X136837500Y-96255000D03*
X136837500Y-96905000D03*
D19*
X133250000Y-83925000D03*
X133250000Y-85675000D03*
D20*
X141110000Y-105400000D03*
D21*
X143650000Y-105400000D03*
X146190000Y-105400000D03*
D22*
X145300000Y-84050000D03*
X145300000Y-90250000D03*
X149000000Y-90250000D03*
X149000000Y-84050000D03*
D23*
X135028000Y-82260000D03*
X135028000Y-80435000D03*
D12*
X138650000Y-102650000D03*
D24*
X134975000Y-103450000D03*
X136800000Y-103450000D03*
D25*
X133412500Y-94950000D03*
X131687500Y-94950000D03*
D16*
X146000000Y-92575000D03*
X146000000Y-94300000D03*
D25*
X136762500Y-101900000D03*
X135037500Y-101900000D03*
D23*
X133250000Y-82269500D03*
X133250000Y-80444500D03*
D26*
X135000000Y-98537500D03*
X135000000Y-100362500D03*
D23*
X149700000Y-99650000D03*
X149700000Y-97825000D03*
D27*
X133210000Y-91727500D03*
X133210000Y-89827500D03*
X131335000Y-90777500D03*
D19*
X135028000Y-83925000D03*
X135028000Y-85675000D03*
D12*
X135000000Y-87550000D03*
X145900000Y-102450000D03*
D20*
X141675000Y-88325000D03*
D21*
X139135000Y-88325000D03*
X141675000Y-85785000D03*
X139135000Y-85785000D03*
X141675000Y-83245000D03*
X139135000Y-83245000D03*
X141675000Y-80705000D03*
X139135000Y-80705000D03*
X141675000Y-78165000D03*
X139135000Y-78165000D03*
D16*
X147550000Y-92575000D03*
X147550000Y-94300000D03*
D13*
X131675000Y-93400000D03*
X133400000Y-93400000D03*
D28*
X138200000Y-100525000D03*
X134975000Y-93575000D03*
X141200000Y-98300000D03*
D29*
X142562500Y-94305000D02*
X142567500Y-94300000D01*
X129450000Y-91725000D02*
X131812500Y-91725000D01*
X140900000Y-96750000D02*
X140900000Y-94750000D01*
X142150000Y-100850000D02*
X143376041Y-100850000D01*
X144445000Y-94305000D02*
X144450000Y-94300000D01*
X143625000Y-93931041D02*
X143625000Y-90275000D01*
X143376041Y-97430000D02*
X141580000Y-97430000D01*
X135550000Y-94300000D02*
X136832500Y-94300000D01*
X141110000Y-105400000D02*
X141110000Y-101890000D01*
X142562500Y-94305000D02*
X143251041Y-94305000D01*
X143376041Y-100850000D02*
X143650000Y-100576041D01*
X133400000Y-94937500D02*
X133412500Y-94950000D01*
X135000000Y-100362500D02*
X135000000Y-103425000D01*
X140900000Y-94750000D02*
X141345000Y-94305000D01*
X131812500Y-91725000D02*
X133207500Y-91725000D01*
X136925000Y-105400000D02*
X141110000Y-105400000D01*
X132650000Y-98012500D02*
X132650000Y-95712500D01*
X141580000Y-97430000D02*
X140900000Y-96750000D01*
X142567500Y-94300000D02*
X147550000Y-94300000D01*
X133210000Y-93210000D02*
X133400000Y-93400000D01*
X131812500Y-91725000D02*
X132087500Y-91725000D01*
X132650000Y-95712500D02*
X133412500Y-94950000D01*
X133207500Y-91725000D02*
X133210000Y-91727500D01*
X133412500Y-94950000D02*
X134900000Y-94950000D01*
X134900000Y-94950000D02*
X135550000Y-94300000D01*
X133400000Y-91917500D02*
X133210000Y-91727500D01*
X134975000Y-103450000D02*
X136925000Y-105400000D01*
X134950000Y-100412500D02*
X135000000Y-100362500D01*
X141110000Y-101890000D02*
X142150000Y-100850000D01*
X135000000Y-100362500D02*
X132650000Y-98012500D01*
X143650000Y-100576041D02*
X143650000Y-97703959D01*
X141675000Y-88575000D02*
X141675000Y-88325000D01*
X133400000Y-93400000D02*
X133400000Y-94937500D01*
X135037500Y-100325000D02*
X135000000Y-100362500D01*
X136837500Y-100325000D02*
X135037500Y-100325000D01*
X133210000Y-91727500D02*
X133210000Y-93210000D01*
X143625000Y-90275000D02*
X141675000Y-88325000D01*
X143650000Y-97703959D02*
X143376041Y-97430000D01*
X133200000Y-91737500D02*
X133210000Y-91727500D01*
X136832500Y-94300000D02*
X136837500Y-94305000D01*
X141345000Y-94305000D02*
X142562500Y-94305000D01*
X135000000Y-103425000D02*
X134975000Y-103450000D01*
X143251041Y-94305000D02*
X143625000Y-93931041D01*
X136540000Y-80435000D02*
X135028000Y-80435000D01*
X145300000Y-90250000D02*
X145300000Y-90776778D01*
X149700000Y-94525000D02*
X149700000Y-94312500D01*
X140415000Y-79425000D02*
X137550000Y-79425000D01*
X145300000Y-84050000D02*
X145300000Y-90250000D01*
X145300000Y-90776778D02*
X146000000Y-91476778D01*
X146000000Y-91476778D02*
X146000000Y-92575000D01*
X147937500Y-96287500D02*
X149700000Y-94525000D01*
X141675000Y-78165000D02*
X140415000Y-79425000D01*
X137550000Y-79425000D02*
X136540000Y-80435000D01*
X149662500Y-99687500D02*
X149700000Y-99650000D01*
X148500000Y-99650000D02*
X149700000Y-99650000D01*
X145105000Y-96255000D02*
X148500000Y-99650000D01*
X153200000Y-104825000D02*
X153200000Y-105825000D01*
X142562500Y-96255000D02*
X145105000Y-96255000D01*
X149662500Y-101287500D02*
X149662500Y-99687500D01*
X149662500Y-101287500D02*
X153200000Y-104825000D01*
X143776104Y-95612500D02*
X143768604Y-95605000D01*
X149662500Y-96287500D02*
X152100000Y-93850000D01*
X149700000Y-96200000D02*
X149700000Y-97825000D01*
X149700000Y-96200000D02*
X149800000Y-96300000D01*
X149662500Y-96287500D02*
X148850000Y-97100000D01*
X148850000Y-97100000D02*
X147100000Y-97100000D01*
X147100000Y-97100000D02*
X145612500Y-95612500D01*
X149567500Y-97692500D02*
X149700000Y-97825000D01*
X143768604Y-95605000D02*
X142562500Y-95605000D01*
X152100000Y-88600000D02*
X153200000Y-89700000D01*
X152100000Y-93850000D02*
X153100000Y-93850000D01*
X153100000Y-93850000D02*
X153200000Y-93950000D01*
X145612500Y-95612500D02*
X143776104Y-95612500D01*
X153200000Y-89700000D02*
X153200000Y-93950000D01*
X133250000Y-82269500D02*
X133250000Y-83925000D01*
X136837500Y-91705000D02*
X135355000Y-91705000D01*
X131359000Y-85675000D02*
X131218000Y-85816000D01*
X133250000Y-85675000D02*
X131359000Y-85675000D01*
X134500000Y-90850000D02*
X134500000Y-89500000D01*
X134500000Y-89100000D02*
X134500000Y-89500000D01*
X135050000Y-91400000D02*
X134500000Y-90850000D01*
X133250000Y-87850000D02*
X134500000Y-89100000D01*
X133250000Y-85675000D02*
X133250000Y-87850000D01*
X135355000Y-91705000D02*
X135050000Y-91400000D01*
X135028000Y-82260000D02*
X135028000Y-83925000D01*
X136128000Y-90345500D02*
X136128000Y-89678000D01*
X136128000Y-90345500D02*
X136837500Y-91055000D01*
X136128000Y-89678000D02*
X135000000Y-88550000D01*
X135000000Y-87550000D02*
X135000000Y-85703000D01*
X135000000Y-88550000D02*
X135000000Y-87550000D01*
X135000000Y-85703000D02*
X135028000Y-85675000D01*
X140455000Y-91705000D02*
X139135000Y-90385000D01*
X142562500Y-91705000D02*
X140455000Y-91705000D01*
X139135000Y-90385000D02*
X139135000Y-88325000D01*
X142562500Y-91055000D02*
X141305000Y-91055000D01*
X142562500Y-91055000D02*
X142617500Y-91000000D01*
X140310000Y-90060000D02*
X140310000Y-86960000D01*
X141305000Y-91055000D02*
X140310000Y-90060000D01*
X140310000Y-86960000D02*
X139135000Y-85785000D01*
X143850000Y-76900000D02*
X149000000Y-82050000D01*
X142562500Y-94955000D02*
X143755000Y-94955000D01*
X143962500Y-95162500D02*
X145798896Y-95162500D01*
X140200000Y-76900000D02*
X143850000Y-76900000D01*
X146036396Y-95400000D02*
X148150000Y-95400000D01*
X149000000Y-82050000D02*
X149000000Y-84050000D01*
X149700000Y-92587500D02*
X149000000Y-91887500D01*
X149200000Y-93087500D02*
X149700000Y-92587500D01*
X148900000Y-94650000D02*
X148900000Y-93779505D01*
X149000000Y-84050000D02*
X149000000Y-90250000D01*
X145798896Y-95162500D02*
X146036396Y-95400000D01*
X139135000Y-77965000D02*
X140200000Y-76900000D01*
X149000000Y-91887500D02*
X149000000Y-90250000D01*
X139135000Y-78165000D02*
X139135000Y-77965000D01*
X148150000Y-95400000D02*
X148900000Y-94650000D01*
X149200000Y-93479505D02*
X149200000Y-93087500D01*
X143755000Y-94955000D02*
X143962500Y-95162500D01*
X149000000Y-83450000D02*
X149000000Y-84050000D01*
X148900000Y-93779505D02*
X149200000Y-93479505D01*
X144255000Y-96905000D02*
X145762500Y-98412500D01*
X145712500Y-102400000D02*
X145762500Y-102450000D01*
X145762500Y-98412500D02*
X145762500Y-102450000D01*
X144075000Y-102400000D02*
X145712500Y-102400000D01*
X142562500Y-96905000D02*
X144255000Y-96905000D01*
X143550000Y-105400000D02*
X143650000Y-105400000D01*
X142250000Y-104000000D02*
X143650000Y-105400000D01*
X142250000Y-102400000D02*
X142250000Y-104000000D01*
X136837500Y-95605000D02*
X138305000Y-95605000D01*
X136837500Y-98375000D02*
X136325000Y-98375000D01*
X135550000Y-97600000D02*
X135550000Y-95950000D01*
X138950000Y-102350000D02*
X138650000Y-102650000D01*
X135550000Y-95950000D02*
X135895000Y-95605000D01*
X135895000Y-95605000D02*
X136837500Y-95605000D01*
X137850000Y-103450000D02*
X138650000Y-102650000D01*
X136325000Y-98375000D02*
X135550000Y-97600000D01*
X138950000Y-96250000D02*
X138950000Y-102350000D01*
X138305000Y-95605000D02*
X138950000Y-96250000D01*
X136800000Y-103450000D02*
X137850000Y-103450000D01*
X135487500Y-99025000D02*
X135000000Y-98537500D01*
X133800000Y-96800000D02*
X133800000Y-97337500D01*
X133800000Y-97337500D02*
X135000000Y-98537500D01*
X135000000Y-98537500D02*
X135000000Y-95863604D01*
X135000000Y-95863604D02*
X135908604Y-94955000D01*
X136837500Y-99025000D02*
X135487500Y-99025000D01*
X135908604Y-94955000D02*
X136837500Y-94955000D01*
X133210000Y-89827500D02*
X133210000Y-90310000D01*
X132477500Y-89827500D02*
X133210000Y-89827500D01*
X133210000Y-90310000D02*
X135255000Y-92355000D01*
X135255000Y-92355000D02*
X136837500Y-92355000D01*
X131850000Y-89200000D02*
X132477500Y-89827500D01*
X131850000Y-87900000D02*
X131850000Y-89200000D01*
X142562500Y-100325000D02*
X140100000Y-100325000D01*
X140100000Y-100325000D02*
X139550000Y-99775000D01*
X139550000Y-99775000D02*
X139550000Y-93350000D01*
X140545000Y-92355000D02*
X142562500Y-92355000D01*
X139550000Y-93350000D02*
X140545000Y-92355000D01*
X140550000Y-99675000D02*
X140000000Y-99125000D01*
X140000000Y-99125000D02*
X140000000Y-93900000D01*
X142562500Y-99675000D02*
X140550000Y-99675000D01*
X140000000Y-93900000D02*
X140895000Y-93005000D01*
X140895000Y-93005000D02*
X142562500Y-93005000D01*
X141145000Y-93655000D02*
X142562500Y-93655000D01*
X140800000Y-99025000D02*
X140450000Y-98675000D01*
X140450000Y-94350000D02*
X141145000Y-93655000D01*
X142562500Y-99025000D02*
X140800000Y-99025000D01*
X140450000Y-98675000D02*
X140450000Y-94350000D01*
X138105000Y-96255000D02*
X136837500Y-96255000D01*
X138500000Y-99300000D02*
X138500000Y-96650000D01*
X136837500Y-99675000D02*
X138125000Y-99675000D01*
X138500000Y-96650000D02*
X138105000Y-96255000D01*
X138125000Y-99675000D02*
X138500000Y-99300000D01*
%TA.AperFunction,Conductor*%
G36*
X140082452Y-76270502D02*
G01*
X140128945Y-76324158D01*
X140139049Y-76394432D01*
X140109555Y-76459012D01*
X140065742Y-76488064D01*
X140066872Y-76490282D01*
X140045498Y-76501172D01*
X140027237Y-76508736D01*
X140013853Y-76513085D01*
X140013850Y-76513087D01*
X140004419Y-76516151D01*
X139996396Y-76521980D01*
X139985009Y-76530253D01*
X139968163Y-76540577D01*
X139946780Y-76551472D01*
X139492383Y-77005869D01*
X139430071Y-77039895D01*
X139378707Y-77040353D01*
X139261442Y-77017028D01*
X139261440Y-77017028D01*
X139255775Y-77015901D01*
X139250000Y-77015825D01*
X139249996Y-77015825D01*
X139143976Y-77014437D01*
X139044346Y-77013133D01*
X139038649Y-77014112D01*
X139038648Y-77014112D01*
X138841650Y-77047962D01*
X138841649Y-77047962D01*
X138835953Y-77048941D01*
X138637575Y-77122127D01*
X138455856Y-77230238D01*
X138296881Y-77369655D01*
X138165976Y-77535708D01*
X138067523Y-77722836D01*
X138004820Y-77924773D01*
X137979967Y-78134754D01*
X137993796Y-78345749D01*
X137995217Y-78351345D01*
X137995218Y-78351350D01*
X138044424Y-78545095D01*
X138045845Y-78550690D01*
X138134369Y-78742714D01*
X138256405Y-78915391D01*
X138407865Y-79062937D01*
X138412661Y-79066142D01*
X138412664Y-79066144D01*
X138515216Y-79134667D01*
X138583677Y-79180411D01*
X138588985Y-79182692D01*
X138588986Y-79182692D01*
X138772650Y-79261600D01*
X138772653Y-79261601D01*
X138777953Y-79263878D01*
X138783582Y-79265152D01*
X138783583Y-79265152D01*
X138978550Y-79309269D01*
X138978553Y-79309269D01*
X138984186Y-79310544D01*
X138989958Y-79310771D01*
X138995687Y-79311525D01*
X138995327Y-79314257D01*
X139051604Y-79333216D01*
X139095950Y-79388659D01*
X139103282Y-79459276D01*
X139071271Y-79522647D01*
X139010081Y-79558651D01*
X139000704Y-79560632D01*
X138841650Y-79587962D01*
X138841649Y-79587962D01*
X138835953Y-79588941D01*
X138637575Y-79662127D01*
X138632614Y-79665079D01*
X138632613Y-79665079D01*
X138520413Y-79731831D01*
X138455856Y-79770238D01*
X138296881Y-79909655D01*
X138165976Y-80075708D01*
X138163287Y-80080819D01*
X138163285Y-80080822D01*
X138132816Y-80138734D01*
X138067523Y-80262836D01*
X138004820Y-80464773D01*
X137979967Y-80674754D01*
X137993796Y-80885749D01*
X137995217Y-80891345D01*
X137995218Y-80891350D01*
X138017784Y-80980200D01*
X138045845Y-81090690D01*
X138134369Y-81282714D01*
X138256405Y-81455391D01*
X138260539Y-81459418D01*
X138384360Y-81580039D01*
X138407865Y-81602937D01*
X138412661Y-81606142D01*
X138412664Y-81606144D01*
X138555936Y-81701875D01*
X138583677Y-81720411D01*
X138588985Y-81722692D01*
X138588986Y-81722692D01*
X138772650Y-81801600D01*
X138772653Y-81801601D01*
X138777953Y-81803878D01*
X138783582Y-81805152D01*
X138783583Y-81805152D01*
X138978550Y-81849269D01*
X138978553Y-81849269D01*
X138984186Y-81850544D01*
X138989958Y-81850771D01*
X138995687Y-81851525D01*
X138995327Y-81854257D01*
X139051604Y-81873216D01*
X139095950Y-81928659D01*
X139103282Y-81999276D01*
X139071271Y-82062647D01*
X139010081Y-82098651D01*
X139000704Y-82100632D01*
X138841650Y-82127962D01*
X138841649Y-82127962D01*
X138835953Y-82128941D01*
X138637575Y-82202127D01*
X138632614Y-82205079D01*
X138632613Y-82205079D01*
X138554326Y-82251655D01*
X138455856Y-82310238D01*
X138296881Y-82449655D01*
X138165976Y-82615708D01*
X138163287Y-82620819D01*
X138163285Y-82620822D01*
X138113400Y-82715638D01*
X138067523Y-82802836D01*
X138004820Y-83004773D01*
X137979967Y-83214754D01*
X137993796Y-83425749D01*
X137995217Y-83431345D01*
X137995218Y-83431350D01*
X138037922Y-83599492D01*
X138045845Y-83630690D01*
X138134369Y-83822714D01*
X138256405Y-83995391D01*
X138407865Y-84142937D01*
X138412661Y-84146142D01*
X138412664Y-84146144D01*
X138515216Y-84214667D01*
X138583677Y-84260411D01*
X138588985Y-84262692D01*
X138588986Y-84262692D01*
X138772650Y-84341600D01*
X138772653Y-84341601D01*
X138777953Y-84343878D01*
X138783582Y-84345152D01*
X138783583Y-84345152D01*
X138978550Y-84389269D01*
X138978553Y-84389269D01*
X138984186Y-84390544D01*
X138989958Y-84390771D01*
X138995687Y-84391525D01*
X138995327Y-84394257D01*
X139051604Y-84413216D01*
X139095950Y-84468659D01*
X139103282Y-84539276D01*
X139071271Y-84602647D01*
X139010081Y-84638651D01*
X139000704Y-84640632D01*
X138841650Y-84667962D01*
X138841649Y-84667962D01*
X138835953Y-84668941D01*
X138637575Y-84742127D01*
X138632614Y-84745079D01*
X138632613Y-84745079D01*
X138615089Y-84755505D01*
X138455856Y-84850238D01*
X138296881Y-84989655D01*
X138165976Y-85155708D01*
X138163287Y-85160819D01*
X138163285Y-85160822D01*
X138140753Y-85203649D01*
X138067523Y-85342836D01*
X138004820Y-85544773D01*
X137979967Y-85754754D01*
X137993796Y-85965749D01*
X137995217Y-85971345D01*
X137995218Y-85971350D01*
X138040166Y-86148329D01*
X138045845Y-86170690D01*
X138048262Y-86175933D01*
X138072767Y-86229089D01*
X138134369Y-86362714D01*
X138256405Y-86535391D01*
X138407865Y-86682937D01*
X138412661Y-86686142D01*
X138412664Y-86686144D01*
X138488761Y-86736990D01*
X138583677Y-86800411D01*
X138588985Y-86802692D01*
X138588986Y-86802692D01*
X138772650Y-86881600D01*
X138772653Y-86881601D01*
X138777953Y-86883878D01*
X138783582Y-86885152D01*
X138783583Y-86885152D01*
X138978550Y-86929269D01*
X138978553Y-86929269D01*
X138984186Y-86930544D01*
X138989958Y-86930771D01*
X138995687Y-86931525D01*
X138995327Y-86934257D01*
X139051604Y-86953216D01*
X139095950Y-87008659D01*
X139103282Y-87079276D01*
X139071271Y-87142647D01*
X139010081Y-87178651D01*
X139000704Y-87180632D01*
X138841650Y-87207962D01*
X138841649Y-87207962D01*
X138835953Y-87208941D01*
X138637575Y-87282127D01*
X138632614Y-87285079D01*
X138632613Y-87285079D01*
X138475541Y-87378527D01*
X138455856Y-87390238D01*
X138296881Y-87529655D01*
X138165976Y-87695708D01*
X138067523Y-87882836D01*
X138022719Y-88027130D01*
X138008473Y-88073010D01*
X138004820Y-88084773D01*
X137979967Y-88294754D01*
X137993796Y-88505749D01*
X137995217Y-88511345D01*
X137995218Y-88511350D01*
X138024442Y-88626418D01*
X138045845Y-88710690D01*
X138048262Y-88715933D01*
X138098829Y-88825621D01*
X138134369Y-88902714D01*
X138256405Y-89075391D01*
X138260539Y-89079418D01*
X138400419Y-89215683D01*
X138407865Y-89222937D01*
X138412661Y-89226142D01*
X138412664Y-89226144D01*
X138536185Y-89308678D01*
X138583677Y-89340411D01*
X138588982Y-89342690D01*
X138588989Y-89342694D01*
X138633236Y-89361703D01*
X138687930Y-89406970D01*
X138709500Y-89477471D01*
X138709500Y-90452393D01*
X138716914Y-90475210D01*
X138721528Y-90494429D01*
X138725281Y-90518126D01*
X138729784Y-90526963D01*
X138729784Y-90526964D01*
X138736172Y-90539502D01*
X138743736Y-90557763D01*
X138748085Y-90571147D01*
X138748087Y-90571150D01*
X138751151Y-90580581D01*
X138756980Y-90588604D01*
X138765253Y-90599991D01*
X138775577Y-90616837D01*
X138786472Y-90638220D01*
X140134157Y-91985905D01*
X140168183Y-92048217D01*
X140163118Y-92119032D01*
X140134157Y-92164095D01*
X139201472Y-93096780D01*
X139190577Y-93118163D01*
X139180253Y-93135009D01*
X139166151Y-93154419D01*
X139163087Y-93163850D01*
X139163085Y-93163853D01*
X139158736Y-93177237D01*
X139151172Y-93195498D01*
X139140281Y-93216874D01*
X139138730Y-93226668D01*
X139136528Y-93240570D01*
X139131914Y-93259790D01*
X139124500Y-93282607D01*
X139124500Y-95518562D01*
X139104498Y-95586683D01*
X139050842Y-95633176D01*
X138980568Y-95643280D01*
X138915988Y-95613786D01*
X138909405Y-95607657D01*
X138558220Y-95256472D01*
X138536837Y-95245577D01*
X138519991Y-95235253D01*
X138508604Y-95226980D01*
X138500581Y-95221151D01*
X138491150Y-95218087D01*
X138491147Y-95218085D01*
X138477763Y-95213736D01*
X138459502Y-95206172D01*
X138446964Y-95199784D01*
X138446963Y-95199784D01*
X138438126Y-95195281D01*
X138414429Y-95191528D01*
X138395210Y-95186914D01*
X138372393Y-95179500D01*
X138001500Y-95179500D01*
X137933379Y-95159498D01*
X137886886Y-95105842D01*
X137875500Y-95053501D01*
X137875499Y-94828437D01*
X137875499Y-94823482D01*
X137860646Y-94729696D01*
X137856143Y-94720859D01*
X137856142Y-94720855D01*
X137838995Y-94687202D01*
X137825891Y-94617425D01*
X137838995Y-94572798D01*
X137856144Y-94539140D01*
X137856144Y-94539139D01*
X137860646Y-94530304D01*
X137875500Y-94436519D01*
X137875499Y-94272427D01*
X137895501Y-94204307D01*
X137912404Y-94183332D01*
X137913656Y-94182080D01*
X138001059Y-94068176D01*
X138009247Y-94053993D01*
X138064189Y-93921351D01*
X138068428Y-93905531D01*
X138072716Y-93872960D01*
X138070505Y-93858778D01*
X138057348Y-93855000D01*
X137700514Y-93855000D01*
X137643312Y-93841267D01*
X137609140Y-93823856D01*
X137609139Y-93823856D01*
X137600304Y-93819354D01*
X137590515Y-93817804D01*
X137590513Y-93817803D01*
X137563151Y-93813470D01*
X137506519Y-93804500D01*
X136837636Y-93804500D01*
X136168482Y-93804501D01*
X136163589Y-93805276D01*
X136163588Y-93805276D01*
X136084494Y-93817802D01*
X136084492Y-93817803D01*
X136074696Y-93819354D01*
X136065859Y-93823857D01*
X136065855Y-93823858D01*
X136031688Y-93841267D01*
X135974486Y-93855000D01*
X135618035Y-93855000D01*
X135569007Y-93869396D01*
X135533509Y-93874500D01*
X135482607Y-93874500D01*
X135473180Y-93877563D01*
X135473173Y-93877564D01*
X135459788Y-93881913D01*
X135440569Y-93886527D01*
X135426672Y-93888728D01*
X135426665Y-93888730D01*
X135416874Y-93890281D01*
X135395498Y-93901173D01*
X135377237Y-93908736D01*
X135354419Y-93916150D01*
X135346397Y-93921979D01*
X135346396Y-93921979D01*
X135335011Y-93930251D01*
X135318156Y-93940581D01*
X135296780Y-93951472D01*
X134760657Y-94487595D01*
X134698345Y-94521621D01*
X134671562Y-94524500D01*
X134302193Y-94524500D01*
X134234072Y-94504498D01*
X134192419Y-94460352D01*
X134188782Y-94453897D01*
X134185620Y-94445911D01*
X134096500Y-94328500D01*
X134020245Y-94270619D01*
X133978078Y-94213500D01*
X133973486Y-94142653D01*
X134007925Y-94080569D01*
X134020245Y-94069893D01*
X134077165Y-94026688D01*
X134084000Y-94021500D01*
X134173120Y-93904089D01*
X134212243Y-93805275D01*
X134224401Y-93774568D01*
X134224402Y-93774566D01*
X134227382Y-93767038D01*
X134238000Y-93679297D01*
X134237999Y-93120704D01*
X134237453Y-93116185D01*
X134228354Y-93040995D01*
X134227382Y-93032962D01*
X134222293Y-93020107D01*
X134183178Y-92921315D01*
X134173120Y-92895911D01*
X134084000Y-92778500D01*
X133966589Y-92689380D01*
X133904358Y-92664741D01*
X133837068Y-92638099D01*
X133837066Y-92638098D01*
X133829538Y-92635118D01*
X133746362Y-92625052D01*
X133681139Y-92597013D01*
X133641428Y-92538160D01*
X133635500Y-92499966D01*
X133635500Y-92454000D01*
X133655502Y-92385879D01*
X133709158Y-92339386D01*
X133761500Y-92328000D01*
X133851334Y-92328000D01*
X133869252Y-92326306D01*
X133875222Y-92325742D01*
X133875223Y-92325742D01*
X133882869Y-92325019D01*
X134010684Y-92280134D01*
X134018254Y-92274542D01*
X134018257Y-92274541D01*
X134112079Y-92205242D01*
X134119650Y-92199650D01*
X134125242Y-92192079D01*
X134125245Y-92192076D01*
X134193388Y-92099818D01*
X134249949Y-92056907D01*
X134320731Y-92051387D01*
X134383834Y-92085582D01*
X135001780Y-92703528D01*
X135023156Y-92714419D01*
X135040012Y-92724749D01*
X135059419Y-92738850D01*
X135082237Y-92746264D01*
X135100498Y-92753827D01*
X135121874Y-92764719D01*
X135131665Y-92766270D01*
X135131672Y-92766272D01*
X135145569Y-92768473D01*
X135164788Y-92773087D01*
X135178173Y-92777436D01*
X135178180Y-92777437D01*
X135187607Y-92780500D01*
X135673500Y-92780500D01*
X135741621Y-92800502D01*
X135788114Y-92854158D01*
X135799500Y-92906499D01*
X135799501Y-93003766D01*
X135799501Y-93037572D01*
X135779499Y-93105693D01*
X135762596Y-93126668D01*
X135761344Y-93127920D01*
X135673941Y-93241824D01*
X135665753Y-93256007D01*
X135610811Y-93388649D01*
X135606572Y-93404469D01*
X135602284Y-93437040D01*
X135604495Y-93451222D01*
X135617652Y-93455000D01*
X135974486Y-93455000D01*
X136031688Y-93468733D01*
X136065856Y-93486142D01*
X136074696Y-93490646D01*
X136084485Y-93492196D01*
X136084487Y-93492197D01*
X136111849Y-93496530D01*
X136168481Y-93505500D01*
X136837364Y-93505500D01*
X137506518Y-93505499D01*
X137511412Y-93504724D01*
X137590506Y-93492198D01*
X137590508Y-93492197D01*
X137600304Y-93490646D01*
X137609141Y-93486143D01*
X137609145Y-93486142D01*
X137643312Y-93468733D01*
X137700514Y-93455000D01*
X138056965Y-93455000D01*
X138070736Y-93450956D01*
X138072765Y-93437417D01*
X138068428Y-93404467D01*
X138064190Y-93388652D01*
X138009247Y-93256007D01*
X138001059Y-93241824D01*
X137913657Y-93127921D01*
X137912398Y-93126662D01*
X137911676Y-93125340D01*
X137908630Y-93121370D01*
X137909249Y-93120895D01*
X137878378Y-93064348D01*
X137875500Y-93037574D01*
X137875499Y-92878437D01*
X137875499Y-92873482D01*
X137868719Y-92830671D01*
X137862198Y-92789494D01*
X137862197Y-92789492D01*
X137860646Y-92779696D01*
X137856143Y-92770859D01*
X137856142Y-92770855D01*
X137838995Y-92737202D01*
X137825891Y-92667425D01*
X137838995Y-92622798D01*
X137856144Y-92589140D01*
X137856144Y-92589139D01*
X137860646Y-92580304D01*
X137864915Y-92553354D01*
X137867321Y-92538160D01*
X137875500Y-92486519D01*
X137875499Y-92223482D01*
X137870525Y-92192076D01*
X137862198Y-92139494D01*
X137862197Y-92139492D01*
X137860646Y-92129696D01*
X137856143Y-92120859D01*
X137856142Y-92120855D01*
X137838995Y-92087202D01*
X137825891Y-92017425D01*
X137838995Y-91972798D01*
X137856144Y-91939140D01*
X137856144Y-91939139D01*
X137860646Y-91930304D01*
X137875500Y-91836519D01*
X137875499Y-91573482D01*
X137874724Y-91568588D01*
X137862198Y-91489494D01*
X137862197Y-91489492D01*
X137860646Y-91479696D01*
X137856143Y-91470859D01*
X137856142Y-91470855D01*
X137838995Y-91437202D01*
X137825891Y-91367425D01*
X137838995Y-91322798D01*
X137856144Y-91289140D01*
X137856144Y-91289139D01*
X137860646Y-91280304D01*
X137875500Y-91186519D01*
X137875499Y-90923482D01*
X137872651Y-90905500D01*
X137862198Y-90839494D01*
X137862197Y-90839492D01*
X137860646Y-90829696D01*
X137803050Y-90716658D01*
X137713342Y-90626950D01*
X137600304Y-90569354D01*
X137590515Y-90567804D01*
X137590513Y-90567803D01*
X137561575Y-90563220D01*
X137506519Y-90554500D01*
X136990938Y-90554500D01*
X136922817Y-90534498D01*
X136901843Y-90517595D01*
X136590405Y-90206157D01*
X136556379Y-90143845D01*
X136553500Y-90117062D01*
X136553500Y-89610607D01*
X136546086Y-89587790D01*
X136541472Y-89568570D01*
X136539270Y-89554668D01*
X136537719Y-89544874D01*
X136526828Y-89523498D01*
X136519264Y-89505237D01*
X136514915Y-89491853D01*
X136514913Y-89491850D01*
X136511849Y-89482419D01*
X136497747Y-89463009D01*
X136487423Y-89446163D01*
X136476528Y-89424780D01*
X135462405Y-88410657D01*
X135428379Y-88348345D01*
X135425500Y-88321562D01*
X135425500Y-88299922D01*
X135445502Y-88231801D01*
X135476924Y-88201552D01*
X135475383Y-88199522D01*
X135480991Y-88195265D01*
X135487044Y-88191657D01*
X135617099Y-88067807D01*
X135634570Y-88041512D01*
X135712582Y-87924093D01*
X135716483Y-87918222D01*
X135754523Y-87818081D01*
X135777757Y-87756919D01*
X135777758Y-87756914D01*
X135780257Y-87750336D01*
X135784874Y-87717486D01*
X135804700Y-87576416D01*
X135804700Y-87576411D01*
X135805251Y-87572493D01*
X135805565Y-87550000D01*
X135785546Y-87371528D01*
X135779427Y-87353955D01*
X135728931Y-87208951D01*
X135726485Y-87201927D01*
X135713612Y-87181325D01*
X135635049Y-87055599D01*
X135631316Y-87049625D01*
X135536063Y-86953705D01*
X135509733Y-86927190D01*
X135509729Y-86927187D01*
X135504770Y-86922193D01*
X135493761Y-86915206D01*
X135483986Y-86909003D01*
X135437187Y-86855614D01*
X135425500Y-86802618D01*
X135425500Y-86563451D01*
X135445502Y-86495330D01*
X135505115Y-86446299D01*
X135532089Y-86435620D01*
X135649500Y-86346500D01*
X135738620Y-86229089D01*
X135779757Y-86125188D01*
X135789901Y-86099568D01*
X135789903Y-86099562D01*
X135792882Y-86092038D01*
X135803500Y-86004297D01*
X135803499Y-85345704D01*
X135792882Y-85257962D01*
X135789136Y-85248499D01*
X135748480Y-85145814D01*
X135738620Y-85120911D01*
X135649500Y-85003500D01*
X135532089Y-84914380D01*
X135524103Y-84911218D01*
X135521540Y-84909774D01*
X135472010Y-84858908D01*
X135457844Y-84789339D01*
X135483538Y-84723155D01*
X135521540Y-84690226D01*
X135524103Y-84688782D01*
X135532089Y-84685620D01*
X135649500Y-84596500D01*
X135738620Y-84479089D01*
X135782075Y-84369333D01*
X135789901Y-84349568D01*
X135789902Y-84349566D01*
X135792882Y-84342038D01*
X135803500Y-84254297D01*
X135803499Y-83595704D01*
X135803044Y-83591938D01*
X135793854Y-83515995D01*
X135792882Y-83507962D01*
X135738620Y-83370911D01*
X135649500Y-83253500D01*
X135544912Y-83174113D01*
X135502745Y-83116995D01*
X135498153Y-83046147D01*
X135532592Y-82984063D01*
X135544912Y-82973387D01*
X135642665Y-82899188D01*
X135649500Y-82894000D01*
X135738620Y-82776589D01*
X135784735Y-82660116D01*
X135789901Y-82647068D01*
X135789902Y-82647066D01*
X135792882Y-82639538D01*
X135803500Y-82551797D01*
X135803499Y-81968204D01*
X135801443Y-81951208D01*
X135793854Y-81888495D01*
X135792882Y-81880462D01*
X135784103Y-81858287D01*
X135746136Y-81762395D01*
X135738620Y-81743411D01*
X135649500Y-81626000D01*
X135642665Y-81620812D01*
X135642660Y-81620807D01*
X135576556Y-81570631D01*
X135534389Y-81513513D01*
X135529797Y-81442665D01*
X135564237Y-81380581D01*
X135586434Y-81363124D01*
X135725492Y-81277073D01*
X135736890Y-81268040D01*
X135849363Y-81155371D01*
X135858375Y-81143960D01*
X135941912Y-81008437D01*
X135948056Y-80995259D01*
X135998315Y-80843734D01*
X136001181Y-80830368D01*
X136010672Y-80737730D01*
X136011000Y-80731315D01*
X136011000Y-80707115D01*
X136006525Y-80691876D01*
X136005135Y-80690671D01*
X135997452Y-80689000D01*
X134291115Y-80689000D01*
X134276144Y-80693396D01*
X134240646Y-80698500D01*
X132285115Y-80698500D01*
X132269876Y-80702975D01*
X132268671Y-80704365D01*
X132267000Y-80712048D01*
X132267000Y-80740766D01*
X132267337Y-80747282D01*
X132277075Y-80841132D01*
X132279968Y-80854528D01*
X132330488Y-81005953D01*
X132336653Y-81019115D01*
X132420426Y-81154492D01*
X132429460Y-81165890D01*
X132542129Y-81278363D01*
X132553540Y-81287375D01*
X132691503Y-81372416D01*
X132738996Y-81425188D01*
X132750420Y-81495260D01*
X132722146Y-81560383D01*
X132701567Y-81580039D01*
X132628500Y-81635500D01*
X132539380Y-81752911D01*
X132536218Y-81760898D01*
X132491268Y-81874430D01*
X132485118Y-81889962D01*
X132474500Y-81977703D01*
X132474501Y-82561296D01*
X132474956Y-82565054D01*
X132474956Y-82565059D01*
X132477072Y-82582546D01*
X132485118Y-82649038D01*
X132488096Y-82656561D01*
X132488097Y-82656563D01*
X132514599Y-82723500D01*
X132539380Y-82786089D01*
X132628500Y-82903500D01*
X132635335Y-82908688D01*
X132726830Y-82978137D01*
X132768997Y-83035256D01*
X132773589Y-83106103D01*
X132739149Y-83168187D01*
X132726830Y-83178863D01*
X132628500Y-83253500D01*
X132539380Y-83370911D01*
X132485118Y-83507962D01*
X132474500Y-83595703D01*
X132474501Y-84254296D01*
X132474956Y-84258054D01*
X132474956Y-84258059D01*
X132480863Y-84306876D01*
X132485118Y-84342038D01*
X132488096Y-84349561D01*
X132488097Y-84349563D01*
X132503818Y-84389269D01*
X132539380Y-84479089D01*
X132628500Y-84596500D01*
X132745911Y-84685620D01*
X132753897Y-84688782D01*
X132756460Y-84690226D01*
X132805990Y-84741092D01*
X132820156Y-84810661D01*
X132794462Y-84876845D01*
X132756460Y-84909774D01*
X132753897Y-84911218D01*
X132745911Y-84914380D01*
X132628500Y-85003500D01*
X132539380Y-85120911D01*
X132533113Y-85136739D01*
X132519990Y-85169884D01*
X132476315Y-85225858D01*
X132402838Y-85249500D01*
X131836100Y-85249500D01*
X131767979Y-85229498D01*
X131746695Y-85212285D01*
X131735313Y-85200824D01*
X131722770Y-85188193D01*
X131711761Y-85181206D01*
X131655991Y-85145814D01*
X131571136Y-85091963D01*
X131502728Y-85067604D01*
X131408586Y-85034081D01*
X131408581Y-85034080D01*
X131401951Y-85031719D01*
X131394965Y-85030886D01*
X131394961Y-85030885D01*
X131267177Y-85015648D01*
X131223624Y-85010455D01*
X131216621Y-85011191D01*
X131216620Y-85011191D01*
X131052025Y-85028490D01*
X131052021Y-85028491D01*
X131045017Y-85029227D01*
X131038346Y-85031498D01*
X130881677Y-85084832D01*
X130881674Y-85084833D01*
X130875007Y-85087103D01*
X130869009Y-85090793D01*
X130869007Y-85090794D01*
X130841610Y-85107649D01*
X130722045Y-85181206D01*
X130717014Y-85186132D01*
X130717011Y-85186135D01*
X130658387Y-85243544D01*
X130593732Y-85306859D01*
X130589913Y-85312784D01*
X130589912Y-85312786D01*
X130557565Y-85362979D01*
X130496446Y-85457817D01*
X130494037Y-85464437D01*
X130494035Y-85464440D01*
X130469570Y-85531657D01*
X130435022Y-85626578D01*
X130412514Y-85804753D01*
X130430039Y-85983486D01*
X130432262Y-85990168D01*
X130432262Y-85990169D01*
X130469054Y-86100770D01*
X130486726Y-86153896D01*
X130490373Y-86159918D01*
X130569921Y-86291267D01*
X130579759Y-86307512D01*
X130704514Y-86436699D01*
X130854789Y-86535036D01*
X131023116Y-86597636D01*
X131030097Y-86598567D01*
X131030099Y-86598568D01*
X131194149Y-86620457D01*
X131194153Y-86620457D01*
X131201130Y-86621388D01*
X131208142Y-86620750D01*
X131208146Y-86620750D01*
X131372960Y-86605751D01*
X131372961Y-86605751D01*
X131379981Y-86605112D01*
X131550782Y-86549615D01*
X131649077Y-86491020D01*
X131698992Y-86461265D01*
X131698994Y-86461264D01*
X131705044Y-86457657D01*
X131835099Y-86333807D01*
X131849205Y-86312576D01*
X131930582Y-86190094D01*
X131930583Y-86190092D01*
X131934483Y-86184222D01*
X131936986Y-86177633D01*
X131940204Y-86171371D01*
X131942429Y-86172514D01*
X131978294Y-86125188D01*
X132044960Y-86100770D01*
X132053207Y-86100500D01*
X132402838Y-86100500D01*
X132470959Y-86120502D01*
X132519990Y-86180116D01*
X132539380Y-86229089D01*
X132628500Y-86346500D01*
X132745911Y-86435620D01*
X132753895Y-86438781D01*
X132760352Y-86442419D01*
X132809882Y-86493285D01*
X132824500Y-86552193D01*
X132824500Y-87519174D01*
X132804498Y-87587295D01*
X132750842Y-87633788D01*
X132680568Y-87643892D01*
X132615988Y-87614398D01*
X132582293Y-87564716D01*
X132581844Y-87564931D01*
X132580413Y-87561945D01*
X132579509Y-87560612D01*
X132576485Y-87551927D01*
X132572634Y-87545763D01*
X132485049Y-87405599D01*
X132481316Y-87399625D01*
X132377920Y-87295505D01*
X132359733Y-87277190D01*
X132359729Y-87277187D01*
X132354770Y-87272193D01*
X132343761Y-87265206D01*
X132289824Y-87230977D01*
X132203136Y-87175963D01*
X132173352Y-87165357D01*
X132040586Y-87118081D01*
X132040581Y-87118080D01*
X132033951Y-87115719D01*
X132026965Y-87114886D01*
X132026961Y-87114885D01*
X131896616Y-87099343D01*
X131855624Y-87094455D01*
X131848621Y-87095191D01*
X131848620Y-87095191D01*
X131684025Y-87112490D01*
X131684021Y-87112491D01*
X131677017Y-87113227D01*
X131670346Y-87115498D01*
X131513677Y-87168832D01*
X131513674Y-87168833D01*
X131507007Y-87171103D01*
X131501009Y-87174793D01*
X131501007Y-87174794D01*
X131491518Y-87180632D01*
X131354045Y-87265206D01*
X131349014Y-87270132D01*
X131349011Y-87270135D01*
X131286883Y-87330976D01*
X131225732Y-87390859D01*
X131221913Y-87396784D01*
X131221912Y-87396786D01*
X131143038Y-87519174D01*
X131128446Y-87541817D01*
X131126037Y-87548437D01*
X131126035Y-87548440D01*
X131117281Y-87572493D01*
X131067022Y-87710578D01*
X131044514Y-87888753D01*
X131045201Y-87895760D01*
X131045201Y-87895763D01*
X131047322Y-87917393D01*
X131062039Y-88067486D01*
X131064262Y-88074168D01*
X131064262Y-88074169D01*
X131115549Y-88228344D01*
X131118726Y-88237896D01*
X131211759Y-88391512D01*
X131216648Y-88396575D01*
X131216649Y-88396576D01*
X131236922Y-88417569D01*
X131336514Y-88520699D01*
X131342412Y-88524559D01*
X131342415Y-88524561D01*
X131367493Y-88540972D01*
X131413541Y-88595009D01*
X131424500Y-88646404D01*
X131424500Y-89267393D01*
X131431914Y-89290210D01*
X131436528Y-89309429D01*
X131440281Y-89333126D01*
X131444784Y-89341963D01*
X131444784Y-89341964D01*
X131451172Y-89354502D01*
X131458736Y-89372763D01*
X131463085Y-89386147D01*
X131463087Y-89386150D01*
X131466151Y-89395581D01*
X131475609Y-89408599D01*
X131480253Y-89414991D01*
X131490577Y-89431837D01*
X131501472Y-89453220D01*
X131802657Y-89754405D01*
X131836683Y-89816717D01*
X131831618Y-89887532D01*
X131789071Y-89944368D01*
X131722551Y-89969179D01*
X131713562Y-89969500D01*
X131607115Y-89969500D01*
X131591876Y-89973975D01*
X131590671Y-89975365D01*
X131589000Y-89983048D01*
X131589000Y-90505385D01*
X131593475Y-90520624D01*
X131594865Y-90521829D01*
X131602548Y-90523500D01*
X132559378Y-90523500D01*
X132574617Y-90519025D01*
X132582431Y-90510007D01*
X132600021Y-90471489D01*
X132659746Y-90433105D01*
X132695247Y-90428000D01*
X132711149Y-90428000D01*
X132779270Y-90448002D01*
X132823230Y-90496592D01*
X132826151Y-90505581D01*
X132831977Y-90513600D01*
X132831978Y-90513602D01*
X132840253Y-90524991D01*
X132850577Y-90541837D01*
X132861472Y-90563220D01*
X133210157Y-90911905D01*
X133244183Y-90974217D01*
X133239118Y-91045032D01*
X133196571Y-91101868D01*
X133130051Y-91126679D01*
X133121062Y-91127000D01*
X132698302Y-91127000D01*
X132630181Y-91106998D01*
X132592809Y-91063868D01*
X132592483Y-91064079D01*
X132590987Y-91061765D01*
X132583688Y-91053342D01*
X132582740Y-91049013D01*
X132574020Y-91035529D01*
X132565130Y-91031500D01*
X131207000Y-91031500D01*
X131138879Y-91011498D01*
X131092386Y-90957842D01*
X131081000Y-90905500D01*
X131081000Y-89987616D01*
X131076525Y-89972377D01*
X131075135Y-89971172D01*
X131067452Y-89969501D01*
X130683517Y-89969501D01*
X130678580Y-89969695D01*
X130650164Y-89971930D01*
X130637569Y-89974230D01*
X130594154Y-89986844D01*
X130523158Y-89986642D01*
X130463541Y-89948088D01*
X130434232Y-89883424D01*
X130433000Y-89865847D01*
X130433000Y-89653734D01*
X130432663Y-89647218D01*
X130422925Y-89553368D01*
X130420032Y-89539972D01*
X130369512Y-89388547D01*
X130363347Y-89375385D01*
X130279574Y-89240008D01*
X130270540Y-89228610D01*
X130157871Y-89116137D01*
X130146460Y-89107125D01*
X130010937Y-89023588D01*
X129997759Y-89017444D01*
X129846234Y-88967185D01*
X129832868Y-88964319D01*
X129740230Y-88954828D01*
X129733815Y-88954500D01*
X129722115Y-88954500D01*
X129706876Y-88958975D01*
X129705671Y-88960365D01*
X129704000Y-88968048D01*
X129704000Y-90128000D01*
X129683998Y-90196121D01*
X129630342Y-90242614D01*
X129578000Y-90254000D01*
X128485115Y-90254000D01*
X128469876Y-90258475D01*
X128468671Y-90259865D01*
X128467000Y-90267548D01*
X128467000Y-90346266D01*
X128467337Y-90352782D01*
X128477075Y-90446632D01*
X128479968Y-90460028D01*
X128530488Y-90611453D01*
X128536653Y-90624615D01*
X128620426Y-90759992D01*
X128629460Y-90771390D01*
X128742129Y-90883863D01*
X128753541Y-90892875D01*
X128763013Y-90898714D01*
X128810508Y-90951486D01*
X128821932Y-91021557D01*
X128797261Y-91082155D01*
X128744575Y-91151566D01*
X128744573Y-91151569D01*
X128739380Y-91158411D01*
X128728770Y-91185209D01*
X128691438Y-91279500D01*
X128685118Y-91295462D01*
X128674500Y-91383203D01*
X128674501Y-92066796D01*
X128674956Y-92070554D01*
X128674956Y-92070559D01*
X128680822Y-92119032D01*
X128685118Y-92154538D01*
X128688096Y-92162061D01*
X128688097Y-92162063D01*
X128715042Y-92230117D01*
X128739380Y-92291589D01*
X128828500Y-92409000D01*
X128945911Y-92498120D01*
X129008142Y-92522759D01*
X129075432Y-92549401D01*
X129075434Y-92549402D01*
X129082962Y-92552382D01*
X129170703Y-92563000D01*
X129449815Y-92563000D01*
X129729296Y-92562999D01*
X129733054Y-92562544D01*
X129733059Y-92562544D01*
X129809005Y-92553354D01*
X129817038Y-92552382D01*
X129824561Y-92549404D01*
X129824563Y-92549403D01*
X129893703Y-92522028D01*
X129954089Y-92498120D01*
X130071500Y-92409000D01*
X130160620Y-92291589D01*
X130184959Y-92230116D01*
X130228632Y-92174143D01*
X130302110Y-92150500D01*
X132200989Y-92150500D01*
X132269110Y-92170502D01*
X132290084Y-92187405D01*
X132294758Y-92192079D01*
X132300350Y-92199650D01*
X132307921Y-92205242D01*
X132307924Y-92205245D01*
X132365146Y-92247510D01*
X132407187Y-92302924D01*
X132469896Y-92301745D01*
X132478425Y-92304404D01*
X132520928Y-92319329D01*
X132537131Y-92325019D01*
X132544777Y-92325742D01*
X132544778Y-92325742D01*
X132550748Y-92326306D01*
X132568666Y-92328000D01*
X132658500Y-92328000D01*
X132726621Y-92348002D01*
X132773114Y-92401658D01*
X132784500Y-92454000D01*
X132784500Y-92615009D01*
X132764498Y-92683130D01*
X132710842Y-92729623D01*
X132640568Y-92739727D01*
X132575988Y-92710233D01*
X132559752Y-92693270D01*
X132558041Y-92691111D01*
X132445371Y-92578637D01*
X132433963Y-92569627D01*
X132370563Y-92530548D01*
X132323069Y-92477776D01*
X132321745Y-92469654D01*
X132317861Y-92471807D01*
X132250620Y-92468454D01*
X132133735Y-92429685D01*
X132120368Y-92426819D01*
X132027730Y-92417328D01*
X132021315Y-92417000D01*
X131947115Y-92417000D01*
X131931876Y-92421475D01*
X131930671Y-92422865D01*
X131929000Y-92430548D01*
X131929000Y-93908885D01*
X131936396Y-93934073D01*
X131941500Y-93969571D01*
X131941500Y-95914885D01*
X131945975Y-95930124D01*
X131947365Y-95931329D01*
X131955048Y-95933000D01*
X132033766Y-95933000D01*
X132040279Y-95932663D01*
X132085495Y-95927971D01*
X132155317Y-95940835D01*
X132207099Y-95989406D01*
X132224500Y-96053298D01*
X132224500Y-98079893D01*
X132231914Y-98102710D01*
X132236528Y-98121929D01*
X132240281Y-98145626D01*
X132244784Y-98154463D01*
X132244784Y-98154464D01*
X132251172Y-98167002D01*
X132258736Y-98185263D01*
X132263085Y-98198647D01*
X132263087Y-98198650D01*
X132266151Y-98208081D01*
X132271980Y-98216104D01*
X132280253Y-98227491D01*
X132290577Y-98244337D01*
X132301472Y-98265720D01*
X134187595Y-100151843D01*
X134221621Y-100214155D01*
X134224500Y-100240938D01*
X134224501Y-100451566D01*
X134224501Y-100654296D01*
X134224956Y-100658054D01*
X134224956Y-100658059D01*
X134231473Y-100711915D01*
X134235118Y-100742038D01*
X134238096Y-100749561D01*
X134238097Y-100749563D01*
X134261191Y-100807891D01*
X134289380Y-100879089D01*
X134378500Y-100996500D01*
X134385335Y-101001688D01*
X134419537Y-101027649D01*
X134461704Y-101084768D01*
X134466296Y-101155616D01*
X134431856Y-101217700D01*
X134419537Y-101228375D01*
X134398522Y-101244326D01*
X134353500Y-101278500D01*
X134264380Y-101395911D01*
X134210118Y-101532962D01*
X134199500Y-101620703D01*
X134199501Y-102179296D01*
X134199956Y-102183054D01*
X134199956Y-102183059D01*
X134204714Y-102222376D01*
X134210118Y-102267038D01*
X134213096Y-102274561D01*
X134213097Y-102274563D01*
X134240472Y-102343703D01*
X134264380Y-102404089D01*
X134353500Y-102521500D01*
X134360335Y-102526688D01*
X134417255Y-102569893D01*
X134459422Y-102627012D01*
X134464014Y-102697859D01*
X134429574Y-102759943D01*
X134417255Y-102770619D01*
X134411133Y-102775266D01*
X134341000Y-102828500D01*
X134251880Y-102945911D01*
X134245347Y-102962412D01*
X134200946Y-103074557D01*
X134197618Y-103082962D01*
X134187000Y-103170703D01*
X134187001Y-103729296D01*
X134187456Y-103733054D01*
X134187456Y-103733059D01*
X134195356Y-103798345D01*
X134197618Y-103817038D01*
X134200596Y-103824561D01*
X134200597Y-103824563D01*
X134216002Y-103863472D01*
X134251880Y-103954089D01*
X134341000Y-104071500D01*
X134458411Y-104160620D01*
X134496858Y-104175842D01*
X134587932Y-104211901D01*
X134587934Y-104211902D01*
X134595462Y-104214882D01*
X134683203Y-104225500D01*
X134714714Y-104225500D01*
X135096561Y-104225499D01*
X135164681Y-104245501D01*
X135185656Y-104262404D01*
X136671780Y-105748528D01*
X136693163Y-105759423D01*
X136710009Y-105769747D01*
X136729419Y-105783849D01*
X136738850Y-105786913D01*
X136738853Y-105786915D01*
X136752237Y-105791264D01*
X136770498Y-105798828D01*
X136783036Y-105805216D01*
X136791874Y-105809719D01*
X136815571Y-105813472D01*
X136834790Y-105818086D01*
X136857607Y-105825500D01*
X139833500Y-105825500D01*
X139901621Y-105845502D01*
X139948114Y-105899158D01*
X139959500Y-105951500D01*
X139959500Y-106294646D01*
X139962618Y-106320846D01*
X140008061Y-106423153D01*
X140016294Y-106431372D01*
X140016295Y-106431373D01*
X140042363Y-106457395D01*
X140087287Y-106502241D01*
X140097924Y-106506944D01*
X140097926Y-106506945D01*
X140135382Y-106523504D01*
X140189673Y-106547506D01*
X140215354Y-106550500D01*
X142004646Y-106550500D01*
X142008350Y-106550059D01*
X142008353Y-106550059D01*
X142015746Y-106549179D01*
X142030846Y-106547382D01*
X142133153Y-106501939D01*
X142212241Y-106422713D01*
X142257506Y-106320327D01*
X142260500Y-106294646D01*
X142260500Y-105610673D01*
X142280502Y-105542552D01*
X142334158Y-105496059D01*
X142404432Y-105485955D01*
X142469012Y-105515449D01*
X142507396Y-105575175D01*
X142508658Y-105580784D01*
X142508796Y-105580749D01*
X142560845Y-105785690D01*
X142563262Y-105790933D01*
X142573653Y-105813472D01*
X142649369Y-105977714D01*
X142771405Y-106150391D01*
X142775539Y-106154418D01*
X142915727Y-106290983D01*
X142922865Y-106297937D01*
X142927661Y-106301142D01*
X142927664Y-106301144D01*
X143030216Y-106369667D01*
X143098677Y-106415411D01*
X143103985Y-106417692D01*
X143103986Y-106417692D01*
X143287650Y-106496600D01*
X143287653Y-106496601D01*
X143292953Y-106498878D01*
X143298582Y-106500152D01*
X143298583Y-106500152D01*
X143493550Y-106544269D01*
X143493553Y-106544269D01*
X143499186Y-106545544D01*
X143504957Y-106545771D01*
X143504959Y-106545771D01*
X143566989Y-106548208D01*
X143710470Y-106553846D01*
X143716179Y-106553018D01*
X143716183Y-106553018D01*
X143914015Y-106524333D01*
X143914019Y-106524332D01*
X143919730Y-106523504D01*
X144006579Y-106494023D01*
X144114483Y-106457395D01*
X144114488Y-106457393D01*
X144119955Y-106455537D01*
X144124998Y-106452713D01*
X144299395Y-106355046D01*
X144299399Y-106355043D01*
X144304442Y-106352219D01*
X144467012Y-106217012D01*
X144602219Y-106054442D01*
X144698931Y-105881751D01*
X144749667Y-105832091D01*
X144819198Y-105817744D01*
X144885449Y-105843265D01*
X144925607Y-105895915D01*
X144971770Y-106009603D01*
X144976413Y-106018794D01*
X145087694Y-106200388D01*
X145093777Y-106208699D01*
X145233213Y-106369667D01*
X145240580Y-106376883D01*
X145404434Y-106512916D01*
X145412881Y-106518831D01*
X145596756Y-106626279D01*
X145606042Y-106630729D01*
X145805001Y-106706703D01*
X145814899Y-106709579D01*
X145918250Y-106730606D01*
X145932299Y-106729410D01*
X145936000Y-106719065D01*
X145936000Y-106718517D01*
X146444000Y-106718517D01*
X146448064Y-106732359D01*
X146461478Y-106734393D01*
X146468184Y-106733534D01*
X146478262Y-106731392D01*
X146682255Y-106670191D01*
X146691842Y-106666433D01*
X146883095Y-106572739D01*
X146891945Y-106567464D01*
X147065328Y-106443792D01*
X147073200Y-106437139D01*
X147224052Y-106286812D01*
X147230730Y-106278965D01*
X147355003Y-106106020D01*
X147360313Y-106097183D01*
X147454670Y-105906267D01*
X147458469Y-105896672D01*
X147520377Y-105692910D01*
X147522555Y-105682837D01*
X147523986Y-105671962D01*
X147521775Y-105657778D01*
X147508617Y-105654000D01*
X146462115Y-105654000D01*
X146446876Y-105658475D01*
X146445671Y-105659865D01*
X146444000Y-105667548D01*
X146444000Y-106718517D01*
X145936000Y-106718517D01*
X145936000Y-105127885D01*
X146444000Y-105127885D01*
X146448475Y-105143124D01*
X146449865Y-105144329D01*
X146457548Y-105146000D01*
X147508344Y-105146000D01*
X147521875Y-105142027D01*
X147523180Y-105132947D01*
X147481214Y-104965875D01*
X147477894Y-104956124D01*
X147392972Y-104760814D01*
X147388105Y-104751739D01*
X147272426Y-104572926D01*
X147266136Y-104564757D01*
X147122806Y-104407240D01*
X147115273Y-104400215D01*
X146948139Y-104268222D01*
X146939552Y-104262517D01*
X146753117Y-104159599D01*
X146743705Y-104155369D01*
X146542959Y-104084280D01*
X146532988Y-104081646D01*
X146461837Y-104068972D01*
X146448540Y-104070432D01*
X146444000Y-104084989D01*
X146444000Y-105127885D01*
X145936000Y-105127885D01*
X145936000Y-104083102D01*
X145932082Y-104069758D01*
X145917806Y-104067771D01*
X145879324Y-104073660D01*
X145869288Y-104076051D01*
X145666868Y-104142212D01*
X145657359Y-104146209D01*
X145468463Y-104244542D01*
X145459738Y-104250036D01*
X145289433Y-104377905D01*
X145281726Y-104384748D01*
X145134590Y-104538717D01*
X145128104Y-104546727D01*
X145008098Y-104722649D01*
X145003000Y-104731623D01*
X144920033Y-104910360D01*
X144873209Y-104963727D01*
X144804965Y-104983308D01*
X144736970Y-104962884D01*
X144692739Y-104913038D01*
X144637721Y-104801473D01*
X144635165Y-104796290D01*
X144508651Y-104626867D01*
X144408286Y-104534090D01*
X144357622Y-104487257D01*
X144357620Y-104487255D01*
X144353381Y-104483337D01*
X144221641Y-104400215D01*
X144179434Y-104373584D01*
X144179433Y-104373584D01*
X144174554Y-104370505D01*
X143978160Y-104292152D01*
X143972503Y-104291027D01*
X143972497Y-104291025D01*
X143776442Y-104252028D01*
X143776440Y-104252028D01*
X143770775Y-104250901D01*
X143765000Y-104250825D01*
X143764996Y-104250825D01*
X143658976Y-104249437D01*
X143559346Y-104248133D01*
X143553649Y-104249112D01*
X143553648Y-104249112D01*
X143356650Y-104282962D01*
X143356649Y-104282962D01*
X143350953Y-104283941D01*
X143290360Y-104306295D01*
X143269374Y-104314037D01*
X143198540Y-104318849D01*
X143136668Y-104284920D01*
X142712405Y-103860657D01*
X142678379Y-103798345D01*
X142675500Y-103771562D01*
X142675500Y-103232314D01*
X142695502Y-103164193D01*
X142751294Y-103118306D01*
X142751120Y-103117998D01*
X142752863Y-103117016D01*
X142755117Y-103115162D01*
X142755122Y-103115160D01*
X142766589Y-103110620D01*
X142884000Y-103021500D01*
X142973120Y-102904089D01*
X142998448Y-102840118D01*
X143024401Y-102774568D01*
X143024402Y-102774566D01*
X143027382Y-102767038D01*
X143037413Y-102684147D01*
X143065454Y-102618922D01*
X143124306Y-102579212D01*
X143195285Y-102577624D01*
X143255855Y-102614662D01*
X143287588Y-102684148D01*
X143292091Y-102721363D01*
X143297618Y-102767038D01*
X143300596Y-102774561D01*
X143300597Y-102774563D01*
X143326552Y-102840118D01*
X143351880Y-102904089D01*
X143441000Y-103021500D01*
X143558411Y-103110620D01*
X143577824Y-103118306D01*
X143687932Y-103161901D01*
X143687934Y-103161902D01*
X143695462Y-103164882D01*
X143783203Y-103175500D01*
X144074807Y-103175500D01*
X144366796Y-103175499D01*
X144370554Y-103175044D01*
X144370559Y-103175044D01*
X144446505Y-103165854D01*
X144454538Y-103164882D01*
X144462061Y-103161904D01*
X144462063Y-103161903D01*
X144572176Y-103118306D01*
X144591589Y-103110620D01*
X144709000Y-103021500D01*
X144798120Y-102904089D01*
X144801282Y-102896102D01*
X144804919Y-102889648D01*
X144855785Y-102840118D01*
X144914693Y-102825500D01*
X145120503Y-102825500D01*
X145188624Y-102845502D01*
X145228278Y-102886228D01*
X145261759Y-102941512D01*
X145386514Y-103070699D01*
X145536789Y-103169036D01*
X145705116Y-103231636D01*
X145712097Y-103232567D01*
X145712099Y-103232568D01*
X145876149Y-103254457D01*
X145876153Y-103254457D01*
X145883130Y-103255388D01*
X145890142Y-103254750D01*
X145890146Y-103254750D01*
X146054960Y-103239751D01*
X146054961Y-103239751D01*
X146061981Y-103239112D01*
X146232782Y-103183615D01*
X146257239Y-103169036D01*
X146380992Y-103095265D01*
X146380994Y-103095264D01*
X146387044Y-103091657D01*
X146517099Y-102967807D01*
X146534570Y-102941512D01*
X146590773Y-102856919D01*
X146616483Y-102818222D01*
X146633068Y-102774563D01*
X146677757Y-102656919D01*
X146677758Y-102656914D01*
X146680257Y-102650336D01*
X146685271Y-102614662D01*
X146704700Y-102476416D01*
X146704700Y-102476411D01*
X146705251Y-102472493D01*
X146705565Y-102450000D01*
X146685546Y-102271528D01*
X146626485Y-102101927D01*
X146588416Y-102041003D01*
X146535049Y-101955599D01*
X146531316Y-101949625D01*
X146458335Y-101876133D01*
X146409733Y-101827190D01*
X146409729Y-101827187D01*
X146404770Y-101822193D01*
X146354613Y-101790362D01*
X146327746Y-101773312D01*
X146253136Y-101725963D01*
X146253745Y-101725003D01*
X146206310Y-101681749D01*
X146188000Y-101616335D01*
X146188000Y-101571266D01*
X146892000Y-101571266D01*
X146892337Y-101577782D01*
X146902075Y-101671632D01*
X146904968Y-101685028D01*
X146955488Y-101836453D01*
X146961653Y-101849615D01*
X147045426Y-101984992D01*
X147054460Y-101996390D01*
X147167129Y-102108863D01*
X147178540Y-102117875D01*
X147314063Y-102201412D01*
X147327241Y-102207556D01*
X147478766Y-102257815D01*
X147492132Y-102260681D01*
X147584770Y-102270172D01*
X147591185Y-102270500D01*
X147665385Y-102270500D01*
X147680624Y-102266025D01*
X147681829Y-102264635D01*
X147683500Y-102256952D01*
X147683500Y-101559615D01*
X147679025Y-101544376D01*
X147677635Y-101543171D01*
X147669952Y-101541500D01*
X146910115Y-101541500D01*
X146894876Y-101545975D01*
X146893671Y-101547365D01*
X146892000Y-101555048D01*
X146892000Y-101571266D01*
X146188000Y-101571266D01*
X146188000Y-101015385D01*
X146892000Y-101015385D01*
X146896475Y-101030624D01*
X146897865Y-101031829D01*
X146905548Y-101033500D01*
X147665385Y-101033500D01*
X147680624Y-101029025D01*
X147681829Y-101027635D01*
X147683500Y-101019952D01*
X147683500Y-100322615D01*
X147679025Y-100307376D01*
X147677635Y-100306171D01*
X147669952Y-100304500D01*
X147591234Y-100304500D01*
X147584718Y-100304837D01*
X147490868Y-100314575D01*
X147477472Y-100317468D01*
X147326047Y-100367988D01*
X147312885Y-100374153D01*
X147177508Y-100457926D01*
X147166110Y-100466960D01*
X147053637Y-100579629D01*
X147044625Y-100591040D01*
X146961088Y-100726563D01*
X146954944Y-100739741D01*
X146904685Y-100891266D01*
X146901819Y-100904632D01*
X146892328Y-100997270D01*
X146892000Y-101003685D01*
X146892000Y-101015385D01*
X146188000Y-101015385D01*
X146188000Y-98345107D01*
X146180586Y-98322290D01*
X146175972Y-98303070D01*
X146173770Y-98289168D01*
X146172219Y-98279374D01*
X146164169Y-98263574D01*
X146151066Y-98193797D01*
X146177768Y-98128013D01*
X146235797Y-98087108D01*
X146306728Y-98084069D01*
X146365531Y-98117278D01*
X148151471Y-99903218D01*
X148151472Y-99903220D01*
X148246780Y-99998528D01*
X148268159Y-100009421D01*
X148285012Y-100019749D01*
X148304419Y-100033849D01*
X148313850Y-100036913D01*
X148313851Y-100036914D01*
X148327237Y-100041264D01*
X148345498Y-100048828D01*
X148358036Y-100055216D01*
X148366874Y-100059719D01*
X148376669Y-100061270D01*
X148385350Y-100064091D01*
X148415124Y-100084451D01*
X148447684Y-100075500D01*
X148867686Y-100075500D01*
X148935807Y-100095502D01*
X148981694Y-100151294D01*
X148982002Y-100151120D01*
X148982984Y-100152863D01*
X148984838Y-100155117D01*
X148989380Y-100166589D01*
X149078500Y-100284000D01*
X149085335Y-100289188D01*
X149085338Y-100289191D01*
X149159935Y-100345813D01*
X149202102Y-100402931D01*
X149206695Y-100473779D01*
X149172256Y-100535863D01*
X149130141Y-100563328D01*
X149095911Y-100576880D01*
X149089069Y-100582073D01*
X149089066Y-100582075D01*
X149019560Y-100634833D01*
X148953207Y-100660087D01*
X148883733Y-100645459D01*
X148836235Y-100600772D01*
X148829576Y-100590011D01*
X148820540Y-100578610D01*
X148707871Y-100466137D01*
X148696460Y-100457125D01*
X148560937Y-100373588D01*
X148547759Y-100367444D01*
X148408017Y-100321093D01*
X148378342Y-100300534D01*
X148342815Y-100309873D01*
X148333571Y-100309268D01*
X148290233Y-100304828D01*
X148283815Y-100304500D01*
X148209615Y-100304500D01*
X148194376Y-100308975D01*
X148193171Y-100310365D01*
X148191500Y-100318048D01*
X148191500Y-102252385D01*
X148195975Y-102267624D01*
X148197365Y-102268829D01*
X148205048Y-102270500D01*
X148283766Y-102270500D01*
X148290282Y-102270163D01*
X148384132Y-102260425D01*
X148397528Y-102257532D01*
X148548953Y-102207012D01*
X148562115Y-102200847D01*
X148697492Y-102117074D01*
X148708890Y-102108040D01*
X148821363Y-101995371D01*
X148830375Y-101983959D01*
X148836214Y-101974487D01*
X148888986Y-101926992D01*
X148959057Y-101915568D01*
X149019655Y-101940239D01*
X149089066Y-101992925D01*
X149089069Y-101992927D01*
X149095911Y-101998120D01*
X149129743Y-102011515D01*
X149225432Y-102049401D01*
X149225434Y-102049402D01*
X149232962Y-102052382D01*
X149320703Y-102063000D01*
X149355598Y-102063000D01*
X149784061Y-102062999D01*
X149852182Y-102083001D01*
X149873156Y-102099904D01*
X150252746Y-102479494D01*
X150286772Y-102541806D01*
X150281707Y-102612621D01*
X150272487Y-102630109D01*
X150272762Y-102630249D01*
X150230578Y-102713214D01*
X150221877Y-102730326D01*
X150220237Y-102735912D01*
X150220236Y-102735914D01*
X150214038Y-102757023D01*
X150201875Y-102798447D01*
X150201234Y-102802903D01*
X150201233Y-102802909D01*
X150195417Y-102843364D01*
X150189500Y-102884516D01*
X150189500Y-109983000D01*
X150196481Y-110047937D01*
X150197199Y-110051237D01*
X150197199Y-110051238D01*
X150207431Y-110098277D01*
X150207435Y-110098292D01*
X150207867Y-110100279D01*
X150218825Y-110138488D01*
X150222802Y-110145288D01*
X150262206Y-110212663D01*
X150275504Y-110235401D01*
X150321997Y-110289057D01*
X150366733Y-110331238D01*
X150374761Y-110335320D01*
X150374764Y-110335322D01*
X150461619Y-110379484D01*
X150461623Y-110379485D01*
X150466810Y-110382123D01*
X150472396Y-110383763D01*
X150472398Y-110383764D01*
X150477204Y-110385175D01*
X150534931Y-110402125D01*
X150539387Y-110402766D01*
X150539393Y-110402767D01*
X150574964Y-110407881D01*
X150621000Y-110414500D01*
X151956628Y-110414500D01*
X151961541Y-110414412D01*
X151966987Y-110414315D01*
X151967017Y-110414314D01*
X151967531Y-110414305D01*
X151968051Y-110414286D01*
X151968067Y-110414286D01*
X151971457Y-110414165D01*
X151971459Y-110414165D01*
X151976520Y-110413984D01*
X152072380Y-110394917D01*
X152113757Y-110379484D01*
X152135922Y-110371217D01*
X152135926Y-110371215D01*
X152138900Y-110370106D01*
X152141741Y-110368706D01*
X152141746Y-110368704D01*
X152185973Y-110346912D01*
X152194051Y-110342932D01*
X152213495Y-110325057D01*
X152272412Y-110270892D01*
X152276702Y-110266948D01*
X152294014Y-110243822D01*
X152317340Y-110212663D01*
X152317346Y-110212654D01*
X152319249Y-110210112D01*
X152350955Y-110157433D01*
X152353239Y-110148715D01*
X152356739Y-110140413D01*
X152360201Y-110141873D01*
X152387639Y-110096262D01*
X152451318Y-110064869D01*
X152472937Y-110063000D01*
X153927103Y-110063000D01*
X153995224Y-110083002D01*
X154041154Y-110138313D01*
X154041197Y-110138488D01*
X154062283Y-110174541D01*
X154084578Y-110212663D01*
X154097876Y-110235401D01*
X154144369Y-110289057D01*
X154189105Y-110331238D01*
X154197133Y-110335320D01*
X154197136Y-110335322D01*
X154283991Y-110379484D01*
X154283995Y-110379485D01*
X154289182Y-110382123D01*
X154294768Y-110383763D01*
X154294770Y-110383764D01*
X154299576Y-110385175D01*
X154357303Y-110402125D01*
X154361759Y-110402766D01*
X154361765Y-110402767D01*
X154397336Y-110407881D01*
X154443372Y-110414500D01*
X155703000Y-110414500D01*
X155706346Y-110414140D01*
X155706351Y-110414140D01*
X155764573Y-110407881D01*
X155764580Y-110407880D01*
X155767937Y-110407519D01*
X155771238Y-110406801D01*
X155818277Y-110396569D01*
X155818292Y-110396565D01*
X155820279Y-110396133D01*
X155822242Y-110395570D01*
X155822250Y-110395568D01*
X155850916Y-110387347D01*
X155850919Y-110387346D01*
X155858488Y-110385175D01*
X155886651Y-110368704D01*
X155950380Y-110331433D01*
X155950384Y-110331430D01*
X155955401Y-110328496D01*
X156009057Y-110282003D01*
X156051238Y-110237267D01*
X156055320Y-110229239D01*
X156055322Y-110229236D01*
X156099484Y-110142381D01*
X156099485Y-110142377D01*
X156102123Y-110137190D01*
X156122125Y-110069069D01*
X156125164Y-110047937D01*
X156133858Y-109987463D01*
X156134500Y-109983000D01*
X156134500Y-89661000D01*
X156133024Y-89647270D01*
X156127881Y-89599427D01*
X156127880Y-89599420D01*
X156127519Y-89596063D01*
X156123893Y-89579393D01*
X156116569Y-89545723D01*
X156116565Y-89545708D01*
X156116133Y-89543721D01*
X156113167Y-89533379D01*
X156107347Y-89513084D01*
X156107346Y-89513081D01*
X156105175Y-89505512D01*
X156085872Y-89472506D01*
X156051433Y-89413620D01*
X156051430Y-89413616D01*
X156048496Y-89408599D01*
X156036252Y-89394468D01*
X156008115Y-89361997D01*
X156002003Y-89354943D01*
X155957267Y-89312762D01*
X155949239Y-89308680D01*
X155949236Y-89308678D01*
X155862381Y-89264516D01*
X155862377Y-89264515D01*
X155857190Y-89261877D01*
X155851604Y-89260237D01*
X155851602Y-89260236D01*
X155811400Y-89248432D01*
X155789069Y-89241875D01*
X155784613Y-89241234D01*
X155784607Y-89241233D01*
X155738772Y-89234643D01*
X155703000Y-89229500D01*
X153652931Y-89229500D01*
X153601899Y-89236116D01*
X153579054Y-89239077D01*
X153579051Y-89239078D01*
X153575029Y-89239599D01*
X153571117Y-89240631D01*
X153571110Y-89240632D01*
X153537147Y-89249589D01*
X153512894Y-89255985D01*
X153510313Y-89256912D01*
X153510303Y-89256915D01*
X153473919Y-89269981D01*
X153403047Y-89274180D01*
X153342239Y-89240491D01*
X152927369Y-88825621D01*
X152893343Y-88763309D01*
X152891690Y-88718991D01*
X152901396Y-88649922D01*
X152905251Y-88622493D01*
X152905565Y-88600000D01*
X152885546Y-88421528D01*
X152879427Y-88403955D01*
X152843407Y-88300520D01*
X152826485Y-88251927D01*
X152821481Y-88243918D01*
X152735049Y-88105599D01*
X152731316Y-88099625D01*
X152645628Y-88013337D01*
X152609733Y-87977190D01*
X152609729Y-87977187D01*
X152604770Y-87972193D01*
X152593761Y-87965206D01*
X152546860Y-87935442D01*
X152453136Y-87875963D01*
X152423352Y-87865357D01*
X152290586Y-87818081D01*
X152290581Y-87818080D01*
X152283951Y-87815719D01*
X152276965Y-87814886D01*
X152276961Y-87814885D01*
X152149177Y-87799648D01*
X152105624Y-87794455D01*
X152098621Y-87795191D01*
X152098620Y-87795191D01*
X151934025Y-87812490D01*
X151934021Y-87812491D01*
X151927017Y-87813227D01*
X151920346Y-87815498D01*
X151763677Y-87868832D01*
X151763674Y-87868833D01*
X151757007Y-87871103D01*
X151751009Y-87874793D01*
X151751007Y-87874794D01*
X151737935Y-87882836D01*
X151604045Y-87965206D01*
X151599014Y-87970132D01*
X151599011Y-87970135D01*
X151554895Y-88013337D01*
X151475732Y-88090859D01*
X151471913Y-88096784D01*
X151471912Y-88096786D01*
X151413903Y-88186799D01*
X151378446Y-88241817D01*
X151376037Y-88248437D01*
X151376035Y-88248440D01*
X151357080Y-88300520D01*
X151317022Y-88410578D01*
X151294514Y-88588753D01*
X151295201Y-88595760D01*
X151295201Y-88595763D01*
X151296005Y-88603963D01*
X151312039Y-88767486D01*
X151314262Y-88774168D01*
X151314262Y-88774169D01*
X151357023Y-88902714D01*
X151368726Y-88937896D01*
X151429491Y-89038231D01*
X151447669Y-89106858D01*
X151425859Y-89174422D01*
X151370983Y-89219468D01*
X151321714Y-89229500D01*
X150621000Y-89229500D01*
X150617654Y-89229860D01*
X150617649Y-89229860D01*
X150559427Y-89236119D01*
X150559420Y-89236120D01*
X150556063Y-89236481D01*
X150552763Y-89237199D01*
X150552762Y-89237199D01*
X150505723Y-89247431D01*
X150505708Y-89247435D01*
X150503721Y-89247867D01*
X150501758Y-89248430D01*
X150501750Y-89248432D01*
X150473084Y-89256653D01*
X150473081Y-89256654D01*
X150465512Y-89258825D01*
X150458712Y-89262802D01*
X150373620Y-89312567D01*
X150373616Y-89312570D01*
X150368599Y-89315504D01*
X150314943Y-89361997D01*
X150272762Y-89406733D01*
X150268680Y-89414761D01*
X150268678Y-89414764D01*
X150225994Y-89498712D01*
X150221877Y-89506810D01*
X150201875Y-89574931D01*
X150201234Y-89579387D01*
X150201233Y-89579393D01*
X150195319Y-89620526D01*
X150189500Y-89661000D01*
X150189500Y-91632771D01*
X150169498Y-91700892D01*
X150115842Y-91747385D01*
X150048363Y-91757858D01*
X149979297Y-91749500D01*
X149957958Y-91749500D01*
X149551499Y-91749501D01*
X149483380Y-91729499D01*
X149436886Y-91675844D01*
X149425500Y-91623501D01*
X149425500Y-91576500D01*
X149445502Y-91508379D01*
X149499158Y-91461886D01*
X149551500Y-91450500D01*
X149594646Y-91450500D01*
X149598350Y-91450059D01*
X149598353Y-91450059D01*
X149605746Y-91449179D01*
X149620846Y-91447382D01*
X149643765Y-91437202D01*
X149712518Y-91406663D01*
X149723153Y-91401939D01*
X149741857Y-91383203D01*
X149794023Y-91330945D01*
X149802241Y-91322713D01*
X149830189Y-91259498D01*
X149843675Y-91228992D01*
X149847506Y-91220327D01*
X149850500Y-91194646D01*
X149850500Y-89305354D01*
X149847382Y-89279154D01*
X149837388Y-89256653D01*
X149806663Y-89187482D01*
X149801939Y-89176847D01*
X149770069Y-89145032D01*
X149762165Y-89137142D01*
X149722713Y-89097759D01*
X149712076Y-89093056D01*
X149712074Y-89093055D01*
X149628992Y-89056325D01*
X149628993Y-89056325D01*
X149620327Y-89052494D01*
X149594646Y-89049500D01*
X149551500Y-89049500D01*
X149483379Y-89029498D01*
X149436886Y-88975842D01*
X149425500Y-88923500D01*
X149425500Y-85376500D01*
X149445502Y-85308379D01*
X149499158Y-85261886D01*
X149551500Y-85250500D01*
X149594646Y-85250500D01*
X149598350Y-85250059D01*
X149598353Y-85250059D01*
X149605746Y-85249179D01*
X149620846Y-85247382D01*
X149723153Y-85201939D01*
X149738930Y-85186135D01*
X149769303Y-85155708D01*
X149802241Y-85122713D01*
X149816353Y-85090794D01*
X149841425Y-85034081D01*
X149847506Y-85020327D01*
X149850500Y-84994646D01*
X149850500Y-83105354D01*
X149847382Y-83079154D01*
X149833935Y-83048879D01*
X149806663Y-82987482D01*
X149801939Y-82976847D01*
X149722713Y-82897759D01*
X149712076Y-82893056D01*
X149712074Y-82893055D01*
X149652538Y-82866735D01*
X149620327Y-82852494D01*
X149594646Y-82849500D01*
X149551500Y-82849500D01*
X149483379Y-82829498D01*
X149436886Y-82775842D01*
X149425500Y-82723500D01*
X149425500Y-81982607D01*
X149418086Y-81959790D01*
X149413472Y-81940570D01*
X149412002Y-81931291D01*
X149409719Y-81916874D01*
X149398828Y-81895498D01*
X149391264Y-81877237D01*
X149386915Y-81863853D01*
X149386913Y-81863850D01*
X149383849Y-81854419D01*
X149369747Y-81835009D01*
X149359423Y-81818163D01*
X149348528Y-81796780D01*
X144103220Y-76551472D01*
X144081837Y-76540577D01*
X144064991Y-76530253D01*
X144053604Y-76521980D01*
X144045581Y-76516151D01*
X144036150Y-76513087D01*
X144036147Y-76513085D01*
X144022763Y-76508736D01*
X144004502Y-76501172D01*
X143983128Y-76490282D01*
X143984356Y-76487872D01*
X143938124Y-76456256D01*
X143910490Y-76390858D01*
X143922599Y-76320902D01*
X143970607Y-76268598D01*
X144035669Y-76250500D01*
X157173500Y-76250500D01*
X157241621Y-76270502D01*
X157288114Y-76324158D01*
X157299500Y-76376500D01*
X157299500Y-111239500D01*
X157279498Y-111307621D01*
X157225842Y-111354114D01*
X157173500Y-111365500D01*
X127676500Y-111365500D01*
X127608379Y-111345498D01*
X127561886Y-111291842D01*
X127550500Y-111239500D01*
X127550500Y-109398000D01*
X128334024Y-109398000D01*
X134565976Y-109398000D01*
X134565976Y-105202000D01*
X128334024Y-105202000D01*
X128334024Y-109398000D01*
X127550500Y-109398000D01*
X127550500Y-95233766D01*
X130642000Y-95233766D01*
X130642337Y-95240282D01*
X130652075Y-95334132D01*
X130654968Y-95347528D01*
X130705488Y-95498953D01*
X130711653Y-95512115D01*
X130795426Y-95647492D01*
X130804460Y-95658890D01*
X130917129Y-95771363D01*
X130928540Y-95780375D01*
X131064063Y-95863912D01*
X131077241Y-95870056D01*
X131228766Y-95920315D01*
X131242132Y-95923181D01*
X131334770Y-95932672D01*
X131341185Y-95933000D01*
X131415385Y-95933000D01*
X131430624Y-95928525D01*
X131431829Y-95927135D01*
X131433500Y-95919452D01*
X131433500Y-95222115D01*
X131429025Y-95206876D01*
X131427635Y-95205671D01*
X131419952Y-95204000D01*
X130660115Y-95204000D01*
X130644876Y-95208475D01*
X130643671Y-95209865D01*
X130642000Y-95217548D01*
X130642000Y-95233766D01*
X127550500Y-95233766D01*
X127550500Y-93683766D01*
X130629500Y-93683766D01*
X130629837Y-93690282D01*
X130639575Y-93784132D01*
X130642468Y-93797528D01*
X130692988Y-93948953D01*
X130699153Y-93962115D01*
X130782927Y-94097494D01*
X130788762Y-94104855D01*
X130815401Y-94170665D01*
X130802231Y-94240429D01*
X130797278Y-94249237D01*
X130711088Y-94389063D01*
X130704944Y-94402241D01*
X130654685Y-94553766D01*
X130651819Y-94567132D01*
X130642328Y-94659770D01*
X130642000Y-94666185D01*
X130642000Y-94677885D01*
X130646475Y-94693124D01*
X130647865Y-94694329D01*
X130655548Y-94696000D01*
X131415385Y-94696000D01*
X131430624Y-94691525D01*
X131431829Y-94690135D01*
X131433500Y-94682452D01*
X131433500Y-94441115D01*
X131426104Y-94415927D01*
X131421000Y-94380429D01*
X131421000Y-93672115D01*
X131416525Y-93656876D01*
X131415135Y-93655671D01*
X131407452Y-93654000D01*
X130647615Y-93654000D01*
X130632376Y-93658475D01*
X130631171Y-93659865D01*
X130629500Y-93667548D01*
X130629500Y-93683766D01*
X127550500Y-93683766D01*
X127550500Y-93127885D01*
X130629500Y-93127885D01*
X130633975Y-93143124D01*
X130635365Y-93144329D01*
X130643048Y-93146000D01*
X131402885Y-93146000D01*
X131418124Y-93141525D01*
X131419329Y-93140135D01*
X131421000Y-93132452D01*
X131421000Y-92435115D01*
X131416525Y-92419876D01*
X131415135Y-92418671D01*
X131407452Y-92417000D01*
X131328734Y-92417000D01*
X131322218Y-92417337D01*
X131228368Y-92427075D01*
X131214972Y-92429968D01*
X131063547Y-92480488D01*
X131050385Y-92486653D01*
X130915008Y-92570426D01*
X130903610Y-92579460D01*
X130791137Y-92692129D01*
X130782125Y-92703540D01*
X130698588Y-92839063D01*
X130692444Y-92852241D01*
X130642185Y-93003766D01*
X130639319Y-93017132D01*
X130629828Y-93109770D01*
X130629500Y-93116185D01*
X130629500Y-93127885D01*
X127550500Y-93127885D01*
X127550500Y-89727885D01*
X128467000Y-89727885D01*
X128471475Y-89743124D01*
X128472865Y-89744329D01*
X128480548Y-89746000D01*
X129177885Y-89746000D01*
X129193124Y-89741525D01*
X129194329Y-89740135D01*
X129196000Y-89732452D01*
X129196000Y-88972615D01*
X129191525Y-88957376D01*
X129190135Y-88956171D01*
X129182452Y-88954500D01*
X129166234Y-88954500D01*
X129159718Y-88954837D01*
X129065868Y-88964575D01*
X129052472Y-88967468D01*
X128901047Y-89017988D01*
X128887885Y-89024153D01*
X128752508Y-89107926D01*
X128741110Y-89116960D01*
X128628637Y-89229629D01*
X128619625Y-89241040D01*
X128536088Y-89376563D01*
X128529944Y-89389741D01*
X128479685Y-89541266D01*
X128476819Y-89554632D01*
X128467328Y-89647270D01*
X128467000Y-89653685D01*
X128467000Y-89727885D01*
X127550500Y-89727885D01*
X127550500Y-80172385D01*
X132267000Y-80172385D01*
X132271475Y-80187624D01*
X132272865Y-80188829D01*
X132280548Y-80190500D01*
X132977885Y-80190500D01*
X132993124Y-80186025D01*
X132994329Y-80184635D01*
X132996000Y-80176952D01*
X132996000Y-80172385D01*
X133504000Y-80172385D01*
X133508475Y-80187624D01*
X133509865Y-80188829D01*
X133517548Y-80190500D01*
X133986885Y-80190500D01*
X134001856Y-80186104D01*
X134037354Y-80181000D01*
X134755885Y-80181000D01*
X134771124Y-80176525D01*
X134772329Y-80175135D01*
X134774000Y-80167452D01*
X134774000Y-80162885D01*
X135282000Y-80162885D01*
X135286475Y-80178124D01*
X135287865Y-80179329D01*
X135295548Y-80181000D01*
X135992885Y-80181000D01*
X136008124Y-80176525D01*
X136009329Y-80175135D01*
X136011000Y-80167452D01*
X136011000Y-80138734D01*
X136010663Y-80132218D01*
X136000925Y-80038368D01*
X135998032Y-80024972D01*
X135947512Y-79873547D01*
X135941347Y-79860385D01*
X135857574Y-79725008D01*
X135848540Y-79713610D01*
X135735871Y-79601137D01*
X135724460Y-79592125D01*
X135588937Y-79508588D01*
X135575759Y-79502444D01*
X135424234Y-79452185D01*
X135410868Y-79449319D01*
X135318230Y-79439828D01*
X135311815Y-79439500D01*
X135300115Y-79439500D01*
X135284876Y-79443975D01*
X135283671Y-79445365D01*
X135282000Y-79453048D01*
X135282000Y-80162885D01*
X134774000Y-80162885D01*
X134774000Y-79457615D01*
X134769525Y-79442376D01*
X134768135Y-79441171D01*
X134760452Y-79439500D01*
X134744234Y-79439500D01*
X134737718Y-79439837D01*
X134643868Y-79449575D01*
X134630472Y-79452468D01*
X134479047Y-79502988D01*
X134465885Y-79509153D01*
X134330508Y-79592926D01*
X134319110Y-79601960D01*
X134223484Y-79697752D01*
X134161201Y-79731831D01*
X134090381Y-79726828D01*
X134045293Y-79697907D01*
X133957871Y-79610637D01*
X133946460Y-79601625D01*
X133810937Y-79518088D01*
X133797759Y-79511944D01*
X133646234Y-79461685D01*
X133632868Y-79458819D01*
X133540230Y-79449328D01*
X133533815Y-79449000D01*
X133522115Y-79449000D01*
X133506876Y-79453475D01*
X133505671Y-79454865D01*
X133504000Y-79462548D01*
X133504000Y-80172385D01*
X132996000Y-80172385D01*
X132996000Y-79467115D01*
X132991525Y-79451876D01*
X132990135Y-79450671D01*
X132982452Y-79449000D01*
X132966234Y-79449000D01*
X132959718Y-79449337D01*
X132865868Y-79459075D01*
X132852472Y-79461968D01*
X132701047Y-79512488D01*
X132687885Y-79518653D01*
X132552508Y-79602426D01*
X132541110Y-79611460D01*
X132428637Y-79724129D01*
X132419625Y-79735540D01*
X132336088Y-79871063D01*
X132329944Y-79884241D01*
X132279685Y-80035766D01*
X132276819Y-80049132D01*
X132267328Y-80141770D01*
X132267000Y-80148185D01*
X132267000Y-80172385D01*
X127550500Y-80172385D01*
X127550500Y-76376500D01*
X127570502Y-76308379D01*
X127624158Y-76261886D01*
X127676500Y-76250500D01*
X140014331Y-76250500D01*
X140082452Y-76270502D01*
G37*
%TD.AperFunction*%
%TA.AperFunction,Conductor*%
G36*
X138460453Y-100048265D02*
G01*
X138509936Y-100099177D01*
X138524500Y-100157982D01*
X138524500Y-101756855D01*
X138504498Y-101824976D01*
X138450842Y-101871469D01*
X138439107Y-101876133D01*
X138307007Y-101921103D01*
X138301009Y-101924793D01*
X138301007Y-101924794D01*
X138278688Y-101938525D01*
X138154045Y-102015206D01*
X138149014Y-102020132D01*
X138149011Y-102020135D01*
X138119126Y-102049401D01*
X138025732Y-102140859D01*
X138018156Y-102152615D01*
X137964443Y-102199039D01*
X137894157Y-102209055D01*
X137829733Y-102179585D01*
X137802135Y-102155671D01*
X137794452Y-102154000D01*
X136634500Y-102154000D01*
X136566379Y-102133998D01*
X136519886Y-102080342D01*
X136508500Y-102028000D01*
X136508500Y-101772000D01*
X136528502Y-101703879D01*
X136582158Y-101657386D01*
X136634500Y-101646000D01*
X137789885Y-101646000D01*
X137805124Y-101641525D01*
X137806329Y-101640135D01*
X137808000Y-101632452D01*
X137808000Y-101616234D01*
X137807663Y-101609718D01*
X137797925Y-101515868D01*
X137795032Y-101502472D01*
X137744512Y-101351047D01*
X137738347Y-101337885D01*
X137654574Y-101202508D01*
X137645540Y-101191110D01*
X137532871Y-101078637D01*
X137521460Y-101069625D01*
X137492893Y-101052016D01*
X137445399Y-100999243D01*
X137433976Y-100929172D01*
X137462250Y-100864048D01*
X137521245Y-100824548D01*
X137539296Y-100820308D01*
X137559099Y-100817172D01*
X137590507Y-100812198D01*
X137590510Y-100812197D01*
X137600304Y-100810646D01*
X137623059Y-100799052D01*
X137661156Y-100779640D01*
X137713342Y-100753050D01*
X137803050Y-100663342D01*
X137860646Y-100550304D01*
X137865109Y-100522129D01*
X137873846Y-100466960D01*
X137875500Y-100456519D01*
X137875499Y-100226501D01*
X137895501Y-100158380D01*
X137949156Y-100111887D01*
X138001499Y-100100500D01*
X138192393Y-100100500D01*
X138215210Y-100093086D01*
X138234429Y-100088472D01*
X138258126Y-100084719D01*
X138276220Y-100075500D01*
X138279502Y-100073828D01*
X138297763Y-100066264D01*
X138311147Y-100061915D01*
X138311150Y-100061913D01*
X138320581Y-100058849D01*
X138328603Y-100053020D01*
X138337438Y-100048519D01*
X138338684Y-100050964D01*
X138391301Y-100032188D01*
X138460453Y-100048265D01*
G37*
%TD.AperFunction*%
%TA.AperFunction,Conductor*%
G36*
X141084012Y-97536214D02*
G01*
X141090595Y-97542343D01*
X141326780Y-97778528D01*
X141346009Y-97788326D01*
X141397621Y-97837073D01*
X141414686Y-97905988D01*
X141397922Y-97963589D01*
X141390753Y-97976007D01*
X141335811Y-98108649D01*
X141331572Y-98124469D01*
X141327284Y-98157040D01*
X141329495Y-98171222D01*
X141342652Y-98175000D01*
X142636500Y-98175000D01*
X142704621Y-98195002D01*
X142751114Y-98248658D01*
X142762500Y-98301000D01*
X142762500Y-98398500D01*
X142742498Y-98466621D01*
X142688842Y-98513114D01*
X142636500Y-98524500D01*
X141904605Y-98524501D01*
X141893482Y-98524501D01*
X141888589Y-98525276D01*
X141888588Y-98525276D01*
X141809494Y-98537802D01*
X141809492Y-98537803D01*
X141799696Y-98539354D01*
X141790859Y-98543857D01*
X141790855Y-98543858D01*
X141756688Y-98561267D01*
X141699486Y-98575000D01*
X141343035Y-98575000D01*
X141298002Y-98588223D01*
X141288392Y-98594398D01*
X141252901Y-98599500D01*
X141028438Y-98599500D01*
X140960317Y-98579498D01*
X140939343Y-98562595D01*
X140912405Y-98535657D01*
X140878379Y-98473345D01*
X140875500Y-98446562D01*
X140875500Y-97631438D01*
X140895502Y-97563317D01*
X140949158Y-97516824D01*
X141019432Y-97506720D01*
X141084012Y-97536214D01*
G37*
%TD.AperFunction*%
%TA.AperFunction,Conductor*%
G36*
X148107367Y-91170002D02*
G01*
X148154397Y-91224851D01*
X148198061Y-91323153D01*
X148277287Y-91402241D01*
X148287924Y-91406944D01*
X148287926Y-91406945D01*
X148347462Y-91433265D01*
X148379673Y-91447506D01*
X148405354Y-91450500D01*
X148448500Y-91450500D01*
X148516621Y-91470502D01*
X148563114Y-91524158D01*
X148574500Y-91576500D01*
X148574500Y-91703398D01*
X148554498Y-91771519D01*
X148500842Y-91818012D01*
X148430568Y-91828116D01*
X148365988Y-91798622D01*
X148359482Y-91792571D01*
X148257871Y-91691137D01*
X148246460Y-91682125D01*
X148110937Y-91598588D01*
X148097759Y-91592444D01*
X147946234Y-91542185D01*
X147932868Y-91539319D01*
X147840230Y-91529828D01*
X147833815Y-91529500D01*
X147822115Y-91529500D01*
X147806876Y-91533975D01*
X147805671Y-91535365D01*
X147804000Y-91543048D01*
X147804000Y-92302885D01*
X147808475Y-92318124D01*
X147809865Y-92319329D01*
X147817548Y-92321000D01*
X148514885Y-92321000D01*
X148530124Y-92316525D01*
X148531329Y-92315135D01*
X148534907Y-92298685D01*
X148568931Y-92236372D01*
X148631243Y-92202346D01*
X148702059Y-92207410D01*
X148747123Y-92236371D01*
X148887595Y-92376843D01*
X148921621Y-92439155D01*
X148924500Y-92465937D01*
X148924501Y-92709060D01*
X148904499Y-92777181D01*
X148887596Y-92798156D01*
X148851472Y-92834280D01*
X148840577Y-92855663D01*
X148830253Y-92872509D01*
X148816151Y-92891919D01*
X148813087Y-92901350D01*
X148813085Y-92901353D01*
X148808736Y-92914737D01*
X148801172Y-92932998D01*
X148790281Y-92954374D01*
X148788730Y-92964168D01*
X148786528Y-92978070D01*
X148781914Y-92997290D01*
X148774500Y-93020107D01*
X148774500Y-93020266D01*
X148773484Y-93022409D01*
X148774500Y-93033452D01*
X148774500Y-93251067D01*
X148754498Y-93319188D01*
X148737596Y-93340162D01*
X148646780Y-93430977D01*
X148551472Y-93526285D01*
X148540577Y-93547668D01*
X148530253Y-93564514D01*
X148516151Y-93583924D01*
X148513087Y-93593355D01*
X148513085Y-93593358D01*
X148508736Y-93606742D01*
X148501172Y-93625003D01*
X148490281Y-93646379D01*
X148488365Y-93658475D01*
X148486528Y-93670075D01*
X148481910Y-93689307D01*
X148480019Y-93695126D01*
X148439943Y-93753729D01*
X148374545Y-93781363D01*
X148304589Y-93769254D01*
X148259825Y-93732364D01*
X148216349Y-93675086D01*
X148202666Y-93657059D01*
X148177413Y-93590706D01*
X148192041Y-93521233D01*
X148236728Y-93473735D01*
X148247489Y-93467076D01*
X148258890Y-93458040D01*
X148371363Y-93345371D01*
X148380375Y-93333960D01*
X148463912Y-93198437D01*
X148470056Y-93185259D01*
X148520315Y-93033734D01*
X148524624Y-93013636D01*
X148525893Y-93013908D01*
X148527390Y-93010241D01*
X148527028Y-92982816D01*
X148532672Y-92927730D01*
X148533000Y-92921315D01*
X148533000Y-92847115D01*
X148528525Y-92831876D01*
X148527135Y-92830671D01*
X148519452Y-92829000D01*
X144322000Y-92829000D01*
X144253879Y-92808998D01*
X144207386Y-92755342D01*
X144196000Y-92703000D01*
X144196000Y-92447000D01*
X144216002Y-92378879D01*
X144269658Y-92332386D01*
X144322000Y-92321000D01*
X147277885Y-92321000D01*
X147293124Y-92316525D01*
X147294329Y-92315135D01*
X147296000Y-92307452D01*
X147296000Y-91547615D01*
X147291525Y-91532376D01*
X147290135Y-91531171D01*
X147282452Y-91529500D01*
X147266234Y-91529500D01*
X147259718Y-91529837D01*
X147165868Y-91539575D01*
X147152472Y-91542468D01*
X147001047Y-91592988D01*
X146987885Y-91599153D01*
X146846282Y-91686779D01*
X146845479Y-91685482D01*
X146787444Y-91708972D01*
X146717680Y-91695801D01*
X146696898Y-91682471D01*
X146696461Y-91682126D01*
X146560937Y-91598588D01*
X146547759Y-91592444D01*
X146389707Y-91540020D01*
X146390404Y-91537919D01*
X146337190Y-91509067D01*
X146302980Y-91446856D01*
X146308039Y-91375479D01*
X146348478Y-91267608D01*
X146353412Y-91246855D01*
X146388628Y-91185209D01*
X146451583Y-91152387D01*
X146475995Y-91150000D01*
X148039246Y-91150000D01*
X148107367Y-91170002D01*
G37*
%TD.AperFunction*%
%TA.AperFunction,Conductor*%
G36*
X143689683Y-77345502D02*
G01*
X143710657Y-77362405D01*
X148537595Y-82189343D01*
X148571621Y-82251655D01*
X148574500Y-82278438D01*
X148574500Y-82723500D01*
X148554498Y-82791621D01*
X148500842Y-82838114D01*
X148448500Y-82849500D01*
X148405354Y-82849500D01*
X148401650Y-82849941D01*
X148401647Y-82849941D01*
X148394254Y-82850821D01*
X148379154Y-82852618D01*
X148276847Y-82898061D01*
X148268628Y-82906294D01*
X148268627Y-82906295D01*
X148262986Y-82911946D01*
X148197759Y-82977287D01*
X148193056Y-82987924D01*
X148193055Y-82987926D01*
X148154583Y-83074948D01*
X148108745Y-83129164D01*
X148039343Y-83150000D01*
X146475995Y-83150000D01*
X146407874Y-83129998D01*
X146361381Y-83076342D01*
X146353412Y-83053145D01*
X146348479Y-83032395D01*
X146303324Y-82911946D01*
X146294786Y-82896351D01*
X146218285Y-82794276D01*
X146205724Y-82781715D01*
X146103649Y-82705214D01*
X146088054Y-82696676D01*
X145967606Y-82651522D01*
X145952351Y-82647895D01*
X145901486Y-82642369D01*
X145894672Y-82642000D01*
X145572115Y-82642000D01*
X145556876Y-82646475D01*
X145555671Y-82647865D01*
X145554000Y-82655548D01*
X145554000Y-85439884D01*
X145558475Y-85455123D01*
X145559865Y-85456328D01*
X145567548Y-85457999D01*
X145724000Y-85457999D01*
X145792121Y-85478001D01*
X145838614Y-85531657D01*
X145850000Y-85583999D01*
X145850000Y-86150000D01*
X148448500Y-86150000D01*
X148516621Y-86170002D01*
X148563114Y-86223658D01*
X148574500Y-86276000D01*
X148574500Y-88024000D01*
X148554498Y-88092121D01*
X148500842Y-88138614D01*
X148448500Y-88150000D01*
X145850000Y-88150000D01*
X145850000Y-88716000D01*
X145829998Y-88784121D01*
X145776342Y-88830614D01*
X145724000Y-88842000D01*
X145572115Y-88842000D01*
X145556876Y-88846475D01*
X145555671Y-88847865D01*
X145554000Y-88855548D01*
X145554000Y-90378000D01*
X145533998Y-90446121D01*
X145480342Y-90492614D01*
X145428000Y-90504000D01*
X145172000Y-90504000D01*
X145103879Y-90483998D01*
X145057386Y-90430342D01*
X145046000Y-90378000D01*
X145046000Y-88860116D01*
X145041525Y-88844877D01*
X145040135Y-88843672D01*
X145032452Y-88842001D01*
X144705331Y-88842001D01*
X144698510Y-88842371D01*
X144647648Y-88847895D01*
X144632396Y-88851521D01*
X144511946Y-88896676D01*
X144496351Y-88905214D01*
X144394276Y-88981715D01*
X144381715Y-88994276D01*
X144305214Y-89096351D01*
X144296676Y-89111946D01*
X144251522Y-89232394D01*
X144247895Y-89247649D01*
X144242369Y-89298514D01*
X144242000Y-89305328D01*
X144242000Y-90015593D01*
X144221998Y-90083714D01*
X144168342Y-90130207D01*
X144098068Y-90140311D01*
X144033488Y-90110817D01*
X144008893Y-90079389D01*
X144008850Y-90079420D01*
X144007970Y-90078209D01*
X144007969Y-90078207D01*
X143994747Y-90060009D01*
X143984423Y-90043163D01*
X143973528Y-90021780D01*
X142862405Y-88910657D01*
X142828379Y-88848345D01*
X142825500Y-88821562D01*
X142825500Y-87430354D01*
X142822382Y-87404154D01*
X142800085Y-87353955D01*
X142781663Y-87312482D01*
X142776939Y-87301847D01*
X142768444Y-87293366D01*
X142705945Y-87230977D01*
X142697713Y-87222759D01*
X142687076Y-87218056D01*
X142687074Y-87218055D01*
X142603992Y-87181325D01*
X142603993Y-87181325D01*
X142595327Y-87177494D01*
X142569646Y-87174500D01*
X142459285Y-87174500D01*
X142391164Y-87154498D01*
X142344671Y-87100842D01*
X142334567Y-87030568D01*
X142364061Y-86965988D01*
X142386117Y-86945921D01*
X142550328Y-86828792D01*
X142558200Y-86822139D01*
X142709052Y-86671812D01*
X142715730Y-86663965D01*
X142840003Y-86491020D01*
X142845313Y-86482183D01*
X142939670Y-86291267D01*
X142943469Y-86281672D01*
X143005377Y-86077910D01*
X143007555Y-86067837D01*
X143008986Y-86056962D01*
X143006775Y-86042778D01*
X142993617Y-86039000D01*
X141547000Y-86039000D01*
X141478879Y-86018998D01*
X141432386Y-85965342D01*
X141421000Y-85913000D01*
X141421000Y-85512885D01*
X141929000Y-85512885D01*
X141933475Y-85528124D01*
X141934865Y-85529329D01*
X141942548Y-85531000D01*
X142993344Y-85531000D01*
X143006875Y-85527027D01*
X143008180Y-85517947D01*
X142966214Y-85350875D01*
X142962894Y-85341124D01*
X142877972Y-85145814D01*
X142873105Y-85136739D01*
X142781196Y-84994669D01*
X144242001Y-84994669D01*
X144242371Y-85001490D01*
X144247895Y-85052352D01*
X144251521Y-85067604D01*
X144296676Y-85188054D01*
X144305214Y-85203649D01*
X144381715Y-85305724D01*
X144394276Y-85318285D01*
X144496351Y-85394786D01*
X144511946Y-85403324D01*
X144632394Y-85448478D01*
X144647649Y-85452105D01*
X144698514Y-85457631D01*
X144705328Y-85458000D01*
X145027885Y-85458000D01*
X145043124Y-85453525D01*
X145044329Y-85452135D01*
X145046000Y-85444452D01*
X145046000Y-84322115D01*
X145041525Y-84306876D01*
X145040135Y-84305671D01*
X145032452Y-84304000D01*
X144260116Y-84304000D01*
X144244877Y-84308475D01*
X144243672Y-84309865D01*
X144242001Y-84317548D01*
X144242001Y-84994669D01*
X142781196Y-84994669D01*
X142757426Y-84957926D01*
X142751136Y-84949757D01*
X142607806Y-84792240D01*
X142600273Y-84785215D01*
X142433139Y-84653222D01*
X142424552Y-84647517D01*
X142387116Y-84626851D01*
X142337146Y-84576419D01*
X142322374Y-84506976D01*
X142347490Y-84440571D01*
X142374842Y-84413964D01*
X142550327Y-84288792D01*
X142558200Y-84282139D01*
X142709052Y-84131812D01*
X142715730Y-84123965D01*
X142840003Y-83951020D01*
X142845313Y-83942183D01*
X142926515Y-83777885D01*
X144242000Y-83777885D01*
X144246475Y-83793124D01*
X144247865Y-83794329D01*
X144255548Y-83796000D01*
X145027885Y-83796000D01*
X145043124Y-83791525D01*
X145044329Y-83790135D01*
X145046000Y-83782452D01*
X145046000Y-82660116D01*
X145041525Y-82644877D01*
X145040135Y-82643672D01*
X145032452Y-82642001D01*
X144705331Y-82642001D01*
X144698510Y-82642371D01*
X144647648Y-82647895D01*
X144632396Y-82651521D01*
X144511946Y-82696676D01*
X144496351Y-82705214D01*
X144394276Y-82781715D01*
X144381715Y-82794276D01*
X144305214Y-82896351D01*
X144296676Y-82911946D01*
X144251522Y-83032394D01*
X144247895Y-83047649D01*
X144242369Y-83098514D01*
X144242000Y-83105328D01*
X144242000Y-83777885D01*
X142926515Y-83777885D01*
X142939670Y-83751267D01*
X142943469Y-83741672D01*
X143005377Y-83537910D01*
X143007555Y-83527837D01*
X143008986Y-83516962D01*
X143006775Y-83502778D01*
X142993617Y-83499000D01*
X141947115Y-83499000D01*
X141931876Y-83503475D01*
X141930671Y-83504865D01*
X141929000Y-83512548D01*
X141929000Y-85512885D01*
X141421000Y-85512885D01*
X141421000Y-83117000D01*
X141441002Y-83048879D01*
X141494658Y-83002386D01*
X141547000Y-82991000D01*
X142993344Y-82991000D01*
X143006875Y-82987027D01*
X143008180Y-82977947D01*
X142966214Y-82810875D01*
X142962894Y-82801124D01*
X142877972Y-82605814D01*
X142873105Y-82596739D01*
X142757426Y-82417926D01*
X142751136Y-82409757D01*
X142607806Y-82252240D01*
X142600273Y-82245215D01*
X142433139Y-82113222D01*
X142424552Y-82107517D01*
X142238117Y-82004599D01*
X142228705Y-82000369D01*
X142177178Y-81982122D01*
X142119642Y-81940528D01*
X142093726Y-81874430D01*
X142107660Y-81804814D01*
X142157672Y-81753415D01*
X142172041Y-81745368D01*
X142329442Y-81657219D01*
X142492012Y-81522012D01*
X142627219Y-81359442D01*
X142630043Y-81354399D01*
X142630046Y-81354395D01*
X142727713Y-81179998D01*
X142727714Y-81179996D01*
X142730537Y-81174955D01*
X142732393Y-81169488D01*
X142732395Y-81169483D01*
X142796647Y-80980200D01*
X142798504Y-80974730D01*
X142812243Y-80879981D01*
X142828314Y-80769140D01*
X142828314Y-80769138D01*
X142828846Y-80765470D01*
X142830429Y-80705000D01*
X142811081Y-80494440D01*
X142753686Y-80290931D01*
X142742553Y-80268354D01*
X142662719Y-80106469D01*
X142660165Y-80101290D01*
X142533651Y-79931867D01*
X142378381Y-79788337D01*
X142276618Y-79724129D01*
X142204434Y-79678584D01*
X142204433Y-79678584D01*
X142199554Y-79675505D01*
X142175643Y-79665966D01*
X142119785Y-79622147D01*
X142096483Y-79555083D01*
X142113138Y-79486068D01*
X142164461Y-79437013D01*
X142176348Y-79431627D01*
X142176842Y-79431433D01*
X142368095Y-79337739D01*
X142376945Y-79332464D01*
X142550328Y-79208792D01*
X142558200Y-79202139D01*
X142709052Y-79051812D01*
X142715730Y-79043965D01*
X142840003Y-78871020D01*
X142845313Y-78862183D01*
X142939670Y-78671267D01*
X142943469Y-78661672D01*
X143005377Y-78457910D01*
X143007555Y-78447837D01*
X143008986Y-78436962D01*
X143006775Y-78422778D01*
X142993617Y-78419000D01*
X141547000Y-78419000D01*
X141478879Y-78398998D01*
X141432386Y-78345342D01*
X141421000Y-78293000D01*
X141421000Y-78037000D01*
X141441002Y-77968879D01*
X141494658Y-77922386D01*
X141547000Y-77911000D01*
X142993344Y-77911000D01*
X143006875Y-77907027D01*
X143008180Y-77897947D01*
X142966214Y-77730875D01*
X142962894Y-77721124D01*
X142877972Y-77525814D01*
X142870661Y-77512180D01*
X142872575Y-77511154D01*
X142854969Y-77451914D01*
X142874747Y-77383728D01*
X142928249Y-77337059D01*
X142980968Y-77325500D01*
X143621562Y-77325500D01*
X143689683Y-77345502D01*
G37*
%TD.AperFunction*%
%TA.AperFunction,Conductor*%
G36*
X140370449Y-78608265D02*
G01*
X140410607Y-78660915D01*
X140456770Y-78774603D01*
X140461413Y-78783794D01*
X140572694Y-78965388D01*
X140578777Y-78973699D01*
X140718213Y-79134667D01*
X140725580Y-79141883D01*
X140889434Y-79277916D01*
X140897881Y-79283831D01*
X141081756Y-79391279D01*
X141091046Y-79395730D01*
X141175328Y-79427914D01*
X141231832Y-79470901D01*
X141256125Y-79537612D01*
X141240495Y-79606867D01*
X141184628Y-79659348D01*
X141182990Y-79660129D01*
X141177575Y-79662127D01*
X141172613Y-79665079D01*
X141172611Y-79665080D01*
X141054178Y-79735540D01*
X140995856Y-79770238D01*
X140836881Y-79909655D01*
X140705976Y-80075708D01*
X140703287Y-80080819D01*
X140703285Y-80080822D01*
X140672816Y-80138734D01*
X140607523Y-80262836D01*
X140544820Y-80464773D01*
X140544141Y-80470510D01*
X140530088Y-80589239D01*
X140502217Y-80654537D01*
X140443469Y-80694401D01*
X140372494Y-80696174D01*
X140311828Y-80659295D01*
X140280730Y-80595471D01*
X140279490Y-80585958D01*
X140271610Y-80500197D01*
X140271081Y-80494440D01*
X140213686Y-80290931D01*
X140202553Y-80268354D01*
X140122719Y-80106469D01*
X140120165Y-80101290D01*
X139993651Y-79931867D01*
X139838381Y-79788337D01*
X139736618Y-79724129D01*
X139664434Y-79678584D01*
X139664433Y-79678584D01*
X139659554Y-79675505D01*
X139463160Y-79597152D01*
X139457503Y-79596027D01*
X139457497Y-79596025D01*
X139260234Y-79556788D01*
X139197324Y-79523881D01*
X139162192Y-79462186D01*
X139165992Y-79391291D01*
X139207517Y-79333705D01*
X139266734Y-79308513D01*
X139399015Y-79289333D01*
X139399019Y-79289332D01*
X139404730Y-79288504D01*
X139483987Y-79261600D01*
X139599483Y-79222395D01*
X139599488Y-79222393D01*
X139604955Y-79220537D01*
X139609998Y-79217713D01*
X139784395Y-79120046D01*
X139784399Y-79120043D01*
X139789442Y-79117219D01*
X139952012Y-78982012D01*
X140087219Y-78819442D01*
X140183931Y-78646751D01*
X140234667Y-78597091D01*
X140304198Y-78582744D01*
X140370449Y-78608265D01*
G37*
%TD.AperFunction*%
%TA.AperFunction,NonConductor*%
G36*
X152590605Y-89555002D02*
G01*
X152611579Y-89571905D01*
X152636579Y-89596905D01*
X152670605Y-89659217D01*
X152665540Y-89730032D01*
X152622993Y-89786868D01*
X152556473Y-89811679D01*
X152547484Y-89812000D01*
X152180252Y-89812000D01*
X152174184Y-89813207D01*
X152133939Y-89821212D01*
X152133938Y-89821212D01*
X152121769Y-89823633D01*
X152055448Y-89867948D01*
X152011133Y-89934269D01*
X151999500Y-89992752D01*
X151999500Y-93457418D01*
X151979498Y-93525539D01*
X151945771Y-93560631D01*
X151929456Y-93572055D01*
X151920185Y-93577961D01*
X151897094Y-93591293D01*
X151887545Y-93596806D01*
X151880459Y-93605251D01*
X151863315Y-93625682D01*
X151855889Y-93633785D01*
X150710095Y-94779579D01*
X150647783Y-94813605D01*
X150576968Y-94808540D01*
X150520132Y-94765993D01*
X150495321Y-94699473D01*
X150495000Y-94690484D01*
X150495000Y-89661000D01*
X150515002Y-89592879D01*
X150568658Y-89546386D01*
X150621000Y-89535000D01*
X152522484Y-89535000D01*
X152590605Y-89555002D01*
G37*
%TD.AperFunction*%
%TA.AperFunction,NonConductor*%
G36*
X155771121Y-89555002D02*
G01*
X155817614Y-89608658D01*
X155829000Y-89661000D01*
X155829000Y-109983000D01*
X155808998Y-110051121D01*
X155755342Y-110097614D01*
X155703000Y-110109000D01*
X154443372Y-110109000D01*
X154375251Y-110088998D01*
X154328758Y-110035342D01*
X154318654Y-109965068D01*
X154345010Y-109907358D01*
X154344552Y-109907052D01*
X154346442Y-109904223D01*
X154388867Y-109840731D01*
X154400500Y-109782248D01*
X154400500Y-101867752D01*
X154388867Y-101809269D01*
X154344552Y-101742948D01*
X154278231Y-101698633D01*
X154266062Y-101696212D01*
X154266061Y-101696212D01*
X154225816Y-101688207D01*
X154219748Y-101687000D01*
X152180252Y-101687000D01*
X152174184Y-101688207D01*
X152133939Y-101696212D01*
X152133938Y-101696212D01*
X152121769Y-101698633D01*
X152055448Y-101742948D01*
X152011133Y-101809269D01*
X151999500Y-101867752D01*
X151999500Y-102859983D01*
X151979498Y-102928104D01*
X151925842Y-102974597D01*
X151855568Y-102984701D01*
X151790988Y-102955207D01*
X151784405Y-102949078D01*
X150531905Y-101696579D01*
X150497880Y-101634267D01*
X150495000Y-101607484D01*
X150495000Y-95967516D01*
X150515002Y-95899395D01*
X150531905Y-95878421D01*
X151784405Y-94625921D01*
X151846717Y-94591895D01*
X151917532Y-94596960D01*
X151974368Y-94639507D01*
X151999179Y-94706027D01*
X151999500Y-94715016D01*
X151999500Y-97907248D01*
X152011133Y-97965731D01*
X152055448Y-98032052D01*
X152121769Y-98076367D01*
X152133938Y-98078788D01*
X152133939Y-98078788D01*
X152174184Y-98086793D01*
X152180252Y-98088000D01*
X154219748Y-98088000D01*
X154225816Y-98086793D01*
X154266061Y-98078788D01*
X154266062Y-98078788D01*
X154278231Y-98076367D01*
X154344552Y-98032052D01*
X154388867Y-97965731D01*
X154400500Y-97907248D01*
X154400500Y-89992752D01*
X154388867Y-89934269D01*
X154344552Y-89867948D01*
X154278231Y-89823633D01*
X154266062Y-89821212D01*
X154266061Y-89821212D01*
X154225816Y-89813207D01*
X154219748Y-89812000D01*
X153654449Y-89812000D01*
X153586328Y-89791998D01*
X153539835Y-89738342D01*
X153532013Y-89692918D01*
X153529264Y-89693159D01*
X153528303Y-89682177D01*
X153529264Y-89671193D01*
X153528296Y-89667580D01*
X153541398Y-89602379D01*
X153590796Y-89551386D01*
X153652931Y-89535000D01*
X155703000Y-89535000D01*
X155771121Y-89555002D01*
G37*
%TD.AperFunction*%
%TA.AperFunction,NonConductor*%
G36*
X150703512Y-102789292D02*
G01*
X150710089Y-102795416D01*
X151962595Y-104047922D01*
X151996621Y-104110234D01*
X151999500Y-104137017D01*
X151999500Y-109782248D01*
X152011133Y-109840731D01*
X152018026Y-109851047D01*
X152055448Y-109907052D01*
X152053583Y-109908298D01*
X152079749Y-109956217D01*
X152074684Y-110027032D01*
X152032137Y-110083868D01*
X151965617Y-110108679D01*
X151956628Y-110109000D01*
X150621000Y-110109000D01*
X150552879Y-110088998D01*
X150506386Y-110035342D01*
X150495000Y-109983000D01*
X150495000Y-102884516D01*
X150515002Y-102816395D01*
X150568658Y-102769902D01*
X150638932Y-102759798D01*
X150703512Y-102789292D01*
G37*
%TD.AperFunction*%
M02*
