%TF.GenerationSoftware,KiCad,Pcbnew,6.0.11+dfsg-1*%
%TF.CreationDate,2024-02-21T10:26:17+01:00*%
%TF.ProjectId,PCB_TMS,5043425f-544d-4532-9e6b-696361645f70,rev?*%
%TF.SameCoordinates,Original*%
%TF.FileFunction,Paste,Top*%
%TF.FilePolarity,Positive*%
%FSLAX46Y46*%
G04 Gerber Fmt 4.6, Leading zero omitted, Abs format (unit mm)*
G04 Created by KiCad (PCBNEW 6.0.11+dfsg-1) date 2024-02-21 10:26:17*
%MOMM*%
%LPD*%
G01*
G04 APERTURE LIST*
G04 Aperture macros list*
%AMRoundRect*
0 Rectangle with rounded corners*
0 $1 Rounding radius*
0 $2 $3 $4 $5 $6 $7 $8 $9 X,Y pos of 4 corners*
0 Add a 4 corners polygon primitive as box body*
4,1,4,$2,$3,$4,$5,$6,$7,$8,$9,$2,$3,0*
0 Add four circle primitives for the rounded corners*
1,1,$1+$1,$2,$3*
1,1,$1+$1,$4,$5*
1,1,$1+$1,$6,$7*
1,1,$1+$1,$8,$9*
0 Add four rect primitives between the rounded corners*
20,1,$1+$1,$2,$3,$4,$5,0*
20,1,$1+$1,$4,$5,$6,$7,0*
20,1,$1+$1,$6,$7,$8,$9,0*
20,1,$1+$1,$8,$9,$2,$3,0*%
G04 Aperture macros list end*
%ADD10RoundRect,0.237500X-0.300000X-0.237500X0.300000X-0.237500X0.300000X0.237500X-0.300000X0.237500X0*%
%ADD11RoundRect,0.237500X0.237500X-0.300000X0.237500X0.300000X-0.237500X0.300000X-0.237500X-0.300000X0*%
%ADD12R,2.000000X7.875000*%
%ADD13RoundRect,0.237500X-0.237500X0.300000X-0.237500X-0.300000X0.237500X-0.300000X0.237500X0.300000X0*%
%ADD14RoundRect,0.237500X0.250000X0.237500X-0.250000X0.237500X-0.250000X-0.237500X0.250000X-0.237500X0*%
%ADD15RoundRect,0.100000X0.637500X0.100000X-0.637500X0.100000X-0.637500X-0.100000X0.637500X-0.100000X0*%
%ADD16RoundRect,0.237500X-0.237500X0.287500X-0.237500X-0.287500X0.237500X-0.287500X0.237500X0.287500X0*%
%ADD17R,1.100000X1.800000*%
%ADD18RoundRect,0.237500X0.237500X-0.250000X0.237500X0.250000X-0.237500X0.250000X-0.237500X-0.250000X0*%
%ADD19RoundRect,0.237500X-0.250000X-0.237500X0.250000X-0.237500X0.250000X0.237500X-0.250000X0.237500X0*%
%ADD20RoundRect,0.237500X0.300000X0.237500X-0.300000X0.237500X-0.300000X-0.237500X0.300000X-0.237500X0*%
%ADD21RoundRect,0.237500X-0.237500X0.250000X-0.237500X-0.250000X0.237500X-0.250000X0.237500X0.250000X0*%
%ADD22RoundRect,0.150000X0.587500X0.150000X-0.587500X0.150000X-0.587500X-0.150000X0.587500X-0.150000X0*%
G04 APERTURE END LIST*
D10*
%TO.C,C5*%
X147937500Y-101287500D03*
X149662500Y-101287500D03*
%TD*%
D11*
%TO.C,C7*%
X149700000Y-94312500D03*
X149700000Y-92587500D03*
%TD*%
D12*
%TO.C,Y1*%
X153200000Y-93950000D03*
X153200000Y-105825000D03*
%TD*%
D13*
%TO.C,C1*%
X144450000Y-92575000D03*
X144450000Y-94300000D03*
%TD*%
D10*
%TO.C,C6*%
X147937500Y-96287500D03*
X149662500Y-96287500D03*
%TD*%
D13*
%TO.C,C9*%
X129450000Y-90000000D03*
X129450000Y-91725000D03*
%TD*%
D14*
%TO.C,R1*%
X144075000Y-102400000D03*
X142250000Y-102400000D03*
%TD*%
D15*
%TO.C,U3*%
X142562500Y-100325000D03*
X142562500Y-99675000D03*
X142562500Y-99025000D03*
X142562500Y-98375000D03*
X136837500Y-98375000D03*
X136837500Y-99025000D03*
X136837500Y-99675000D03*
X136837500Y-100325000D03*
%TD*%
%TO.C,U1*%
X142562500Y-96905000D03*
X142562500Y-96255000D03*
X142562500Y-95605000D03*
X142562500Y-94955000D03*
X142562500Y-94305000D03*
X142562500Y-93655000D03*
X142562500Y-93005000D03*
X142562500Y-92355000D03*
X142562500Y-91705000D03*
X142562500Y-91055000D03*
X136837500Y-91055000D03*
X136837500Y-91705000D03*
X136837500Y-92355000D03*
X136837500Y-93005000D03*
X136837500Y-93655000D03*
X136837500Y-94305000D03*
X136837500Y-94955000D03*
X136837500Y-95605000D03*
X136837500Y-96255000D03*
X136837500Y-96905000D03*
%TD*%
D16*
%TO.C,D1*%
X133250000Y-83925000D03*
X133250000Y-85675000D03*
%TD*%
D17*
%TO.C,SW2*%
X145300000Y-84050000D03*
X145300000Y-90250000D03*
X149000000Y-90250000D03*
X149000000Y-84050000D03*
%TD*%
D18*
%TO.C,R7*%
X135028000Y-82260000D03*
X135028000Y-80435000D03*
%TD*%
D19*
%TO.C,R4*%
X134975000Y-103450000D03*
X136800000Y-103450000D03*
%TD*%
D20*
%TO.C,1uF1*%
X133412500Y-94950000D03*
X131687500Y-94950000D03*
%TD*%
D13*
%TO.C,C2*%
X146000000Y-92575000D03*
X146000000Y-94300000D03*
%TD*%
D20*
%TO.C,C8*%
X136762500Y-101900000D03*
X135037500Y-101900000D03*
%TD*%
D18*
%TO.C,R6*%
X133250000Y-82269500D03*
X133250000Y-80444500D03*
%TD*%
D21*
%TO.C,R5*%
X135000000Y-98537500D03*
X135000000Y-100362500D03*
%TD*%
D18*
%TO.C,R2*%
X149700000Y-99650000D03*
X149700000Y-97825000D03*
%TD*%
D22*
%TO.C,U2*%
X133210000Y-91727500D03*
X133210000Y-89827500D03*
X131335000Y-90777500D03*
%TD*%
D16*
%TO.C,D2*%
X135028000Y-83925000D03*
X135028000Y-85675000D03*
%TD*%
D13*
%TO.C,C3*%
X147550000Y-92575000D03*
X147550000Y-94300000D03*
%TD*%
D10*
%TO.C,C4*%
X131675000Y-93400000D03*
X133400000Y-93400000D03*
%TD*%
M02*
